<mxfile host="app.diagrams.net" modified="2024-04-03T21:07:59.147Z" agent="Mozilla/5.0 (Macintosh; Intel Mac OS X 10_15_7) AppleWebKit/537.36 (KHTML, like Gecko) Chrome/123.0.0.0 Safari/537.36" etag="m10feR-EHcU1OcZ2vbO2" version="24.2.1" type="github">
  <diagram name="Page-1" id="ufWU3AWM_fIseER_e3hl">
    <mxGraphModel dx="1463" dy="844" grid="1" gridSize="10" guides="1" tooltips="1" connect="1" arrows="1" fold="1" page="1" pageScale="1" pageWidth="1400" pageHeight="850" math="0" shadow="0">
      <root>
        <mxCell id="0" />
        <mxCell id="1" parent="0" />
        <mxCell id="QpJPM_pMCbOV_byNEW9--1" value="News Feed Design&amp;nbsp;" style="text;html=1;align=center;verticalAlign=middle;resizable=0;points=[];autosize=1;strokeColor=#6c8ebf;fillColor=#dae8fc;fontStyle=1;fontSize=15;" vertex="1" parent="1">
          <mxGeometry x="625" y="20" width="150" height="30" as="geometry" />
        </mxCell>
        <mxCell id="QpJPM_pMCbOV_byNEW9--53" value="" style="group;fillColor=#fff2cc;strokeColor=#d6b656;" vertex="1" connectable="0" parent="1">
          <mxGeometry x="20" y="80" width="400" height="600" as="geometry" />
        </mxCell>
        <mxCell id="QpJPM_pMCbOV_byNEW9--4" value="" style="sketch=0;outlineConnect=0;fontColor=#232F3E;gradientColor=none;fillColor=#232F3D;strokeColor=none;dashed=0;verticalLabelPosition=bottom;verticalAlign=top;align=center;html=1;fontSize=12;fontStyle=0;aspect=fixed;pointerEvents=1;shape=mxgraph.aws4.mobile_client;" vertex="1" parent="QpJPM_pMCbOV_byNEW9--53">
          <mxGeometry x="241.86046511627916" y="21.461897356143076" width="23.6178163184864" height="44.93496255419787" as="geometry" />
        </mxCell>
        <mxCell id="QpJPM_pMCbOV_byNEW9--5" value="" style="sketch=0;pointerEvents=1;shadow=0;dashed=0;html=1;strokeColor=none;fillColor=#000000;labelPosition=center;verticalLabelPosition=bottom;verticalAlign=top;outlineConnect=0;align=center;shape=mxgraph.office.devices.laptop;" vertex="1" parent="QpJPM_pMCbOV_byNEW9--53">
          <mxGeometry x="130.23255813953494" y="28.926905132192832" width="53.95348837209304" height="31.726283048211506" as="geometry" />
        </mxCell>
        <mxCell id="QpJPM_pMCbOV_byNEW9--11" value="" style="edgeStyle=orthogonalEdgeStyle;rounded=0;orthogonalLoop=1;jettySize=auto;html=1;" edge="1" parent="QpJPM_pMCbOV_byNEW9--53" source="QpJPM_pMCbOV_byNEW9--6" target="QpJPM_pMCbOV_byNEW9--10">
          <mxGeometry relative="1" as="geometry" />
        </mxCell>
        <mxCell id="QpJPM_pMCbOV_byNEW9--13" value="" style="edgeStyle=orthogonalEdgeStyle;rounded=0;orthogonalLoop=1;jettySize=auto;html=1;" edge="1" parent="QpJPM_pMCbOV_byNEW9--53" source="QpJPM_pMCbOV_byNEW9--6" target="QpJPM_pMCbOV_byNEW9--12">
          <mxGeometry relative="1" as="geometry" />
        </mxCell>
        <mxCell id="QpJPM_pMCbOV_byNEW9--6" value="" style="rounded=1;whiteSpace=wrap;html=1;fillColor=none;" vertex="1" parent="QpJPM_pMCbOV_byNEW9--53">
          <mxGeometry x="111.62790697674421" width="186.04651162790702" height="72.78382581648522" as="geometry" />
        </mxCell>
        <mxCell id="QpJPM_pMCbOV_byNEW9--7" value="User" style="text;html=1;align=center;verticalAlign=middle;resizable=0;points=[];autosize=1;strokeColor=none;fillColor=none;" vertex="1" parent="QpJPM_pMCbOV_byNEW9--53">
          <mxGeometry x="130.23255813953494" y="0.9331259720062235" width="50" height="30" as="geometry" />
        </mxCell>
        <mxCell id="QpJPM_pMCbOV_byNEW9--8" value="User" style="text;html=1;align=center;verticalAlign=middle;resizable=0;points=[];autosize=1;strokeColor=none;fillColor=none;" vertex="1" parent="QpJPM_pMCbOV_byNEW9--53">
          <mxGeometry x="230.82790697674417" y="0.9331259720062235" width="50" height="30" as="geometry" />
        </mxCell>
        <mxCell id="QpJPM_pMCbOV_byNEW9--10" value="" style="image;sketch=0;aspect=fixed;html=1;points=[];align=center;fontSize=12;image=img/lib/mscae/DNS.svg;" vertex="1" parent="QpJPM_pMCbOV_byNEW9--53">
          <mxGeometry y="13.063763608087097" width="44.93496255419787" height="44.93496255419787" as="geometry" />
        </mxCell>
        <mxCell id="QpJPM_pMCbOV_byNEW9--12" value="" style="verticalLabelPosition=bottom;html=1;verticalAlign=top;align=center;strokeColor=none;fillColor=#000000;shape=mxgraph.azure.azure_load_balancer;" vertex="1" parent="QpJPM_pMCbOV_byNEW9--53">
          <mxGeometry x="181.39534883720935" y="124.10575427682734" width="46.511627906976756" height="32.65940902021773" as="geometry" />
        </mxCell>
        <mxCell id="QpJPM_pMCbOV_byNEW9--16" value="" style="rounded=1;whiteSpace=wrap;html=1;fillColor=none;strokeColor=#00BEF2;dashed=1;strokeWidth=2;" vertex="1" parent="QpJPM_pMCbOV_byNEW9--53">
          <mxGeometry x="166.57674418604648" y="197.8227060653188" width="76.14883720930234" height="75.58320373250388" as="geometry" />
        </mxCell>
        <mxCell id="QpJPM_pMCbOV_byNEW9--15" value="" style="sketch=0;pointerEvents=1;shadow=0;dashed=0;html=1;strokeColor=none;labelPosition=center;verticalLabelPosition=bottom;verticalAlign=top;outlineConnect=0;align=center;shape=mxgraph.office.servers.physical_host_farm;fillColor=#00994D;" vertex="1" parent="QpJPM_pMCbOV_byNEW9--53">
          <mxGeometry x="178.60465116279073" y="208.08709175738718" width="52.09302325581397" height="45.723172628304816" as="geometry" />
        </mxCell>
        <mxCell id="QpJPM_pMCbOV_byNEW9--17" value="Web servers" style="text;html=1;align=center;verticalAlign=middle;resizable=0;points=[];autosize=1;strokeColor=none;fillColor=none;" vertex="1" parent="QpJPM_pMCbOV_byNEW9--53">
          <mxGeometry x="163.72093023255815" y="249.1446345256609" width="90" height="30" as="geometry" />
        </mxCell>
        <mxCell id="QpJPM_pMCbOV_byNEW9--20" value="" style="endArrow=classic;html=1;rounded=0;" edge="1" parent="QpJPM_pMCbOV_byNEW9--53">
          <mxGeometry width="50" height="50" relative="1" as="geometry">
            <mxPoint x="204.18604651162798" y="152.09953343701397" as="sourcePoint" />
            <mxPoint x="204.65116279069767" y="198.75583203732504" as="targetPoint" />
          </mxGeometry>
        </mxCell>
        <mxCell id="QpJPM_pMCbOV_byNEW9--21" value="Post service" style="rounded=1;whiteSpace=wrap;html=1;" vertex="1" parent="QpJPM_pMCbOV_byNEW9--53">
          <mxGeometry x="9.302325581395372" y="310.7309486780715" width="102.32558139534885" height="37.32503888024883" as="geometry" />
        </mxCell>
        <mxCell id="QpJPM_pMCbOV_byNEW9--22" value="Fanout service" style="rounded=1;whiteSpace=wrap;html=1;" vertex="1" parent="QpJPM_pMCbOV_byNEW9--53">
          <mxGeometry x="154.41860465116284" y="310.7309486780715" width="102.32558139534885" height="37.32503888024883" as="geometry" />
        </mxCell>
        <mxCell id="QpJPM_pMCbOV_byNEW9--23" value="Notification service" style="rounded=1;whiteSpace=wrap;html=1;" vertex="1" parent="QpJPM_pMCbOV_byNEW9--53">
          <mxGeometry x="297.6744186046512" y="310.7309486780715" width="102.32558139534885" height="37.32503888024883" as="geometry" />
        </mxCell>
        <mxCell id="QpJPM_pMCbOV_byNEW9--24" value="" style="endArrow=classic;html=1;rounded=0;entryX=0.25;entryY=0;entryDx=0;entryDy=0;exitX=0.5;exitY=0.919;exitDx=0;exitDy=0;exitPerimeter=0;" edge="1" parent="QpJPM_pMCbOV_byNEW9--53" source="QpJPM_pMCbOV_byNEW9--17" target="QpJPM_pMCbOV_byNEW9--23">
          <mxGeometry width="50" height="50" relative="1" as="geometry">
            <mxPoint x="212.09302325581405" y="273.40590979782274" as="sourcePoint" />
            <mxPoint x="230.69767441860478" y="329.39346811819587" as="targetPoint" />
          </mxGeometry>
        </mxCell>
        <mxCell id="QpJPM_pMCbOV_byNEW9--27" value="" style="endArrow=classic;html=1;rounded=0;entryX=0.75;entryY=0;entryDx=0;entryDy=0;" edge="1" parent="QpJPM_pMCbOV_byNEW9--53" target="QpJPM_pMCbOV_byNEW9--21">
          <mxGeometry width="50" height="50" relative="1" as="geometry">
            <mxPoint x="198.26976744186055" y="277.1384136858476" as="sourcePoint" />
            <mxPoint x="309.89767441860477" y="314.4634525660963" as="targetPoint" />
          </mxGeometry>
        </mxCell>
        <mxCell id="QpJPM_pMCbOV_byNEW9--33" value="" style="group" vertex="1" connectable="0" parent="QpJPM_pMCbOV_byNEW9--53">
          <mxGeometry x="23.255813953488335" y="382.5816485225506" width="74.41860465116281" height="100.77760497667185" as="geometry" />
        </mxCell>
        <mxCell id="QpJPM_pMCbOV_byNEW9--28" value="" style="outlineConnect=0;dashed=0;verticalLabelPosition=bottom;verticalAlign=top;align=center;html=1;shape=mxgraph.aws3.cache_node;fillColor=#2E73B8;gradientColor=none;" vertex="1" parent="QpJPM_pMCbOV_byNEW9--33">
          <mxGeometry x="6.465116279069811" y="3.732503888024883" width="35.45116279069769" height="37.32503888024883" as="geometry" />
        </mxCell>
        <mxCell id="QpJPM_pMCbOV_byNEW9--29" value="" style="outlineConnect=0;dashed=0;verticalLabelPosition=bottom;verticalAlign=top;align=center;html=1;shape=mxgraph.aws3.cache_node;fillColor=#2E73B8;gradientColor=none;" vertex="1" parent="QpJPM_pMCbOV_byNEW9--33">
          <mxGeometry x="16.6976744186047" y="22.3950233281493" width="35.45116279069769" height="37.32503888024883" as="geometry" />
        </mxCell>
        <mxCell id="QpJPM_pMCbOV_byNEW9--30" value="" style="outlineConnect=0;dashed=0;verticalLabelPosition=bottom;verticalAlign=top;align=center;html=1;shape=mxgraph.aws3.cache_node;fillColor=#2E73B8;gradientColor=none;" vertex="1" parent="QpJPM_pMCbOV_byNEW9--33">
          <mxGeometry x="26.827906976744227" y="41.05754276827371" width="35.45116279069769" height="37.32503888024883" as="geometry" />
        </mxCell>
        <mxCell id="QpJPM_pMCbOV_byNEW9--31" value="" style="rounded=1;whiteSpace=wrap;html=1;fillColor=none;strokeColor=#00BEF2;dashed=1;strokeWidth=2;" vertex="1" parent="QpJPM_pMCbOV_byNEW9--33">
          <mxGeometry x="1.004651162790698" width="70.57674418604653" height="97.04510108864696" as="geometry" />
        </mxCell>
        <mxCell id="QpJPM_pMCbOV_byNEW9--32" value="Post cache" style="text;html=1;align=center;verticalAlign=middle;resizable=0;points=[];autosize=1;strokeColor=none;fillColor=none;" vertex="1" parent="QpJPM_pMCbOV_byNEW9--33">
          <mxGeometry y="72.78382581648522" width="80" height="30" as="geometry" />
        </mxCell>
        <mxCell id="QpJPM_pMCbOV_byNEW9--39" value="" style="group" vertex="1" connectable="0" parent="QpJPM_pMCbOV_byNEW9--53">
          <mxGeometry x="13.953488372093027" y="513.2192846034214" width="93.02325581395351" height="86.78071539657853" as="geometry" />
        </mxCell>
        <mxCell id="QpJPM_pMCbOV_byNEW9--36" value="" style="rounded=1;whiteSpace=wrap;html=1;fillColor=none;strokeColor=#00BEF2;dashed=1;strokeWidth=2;" vertex="1" parent="QpJPM_pMCbOV_byNEW9--39">
          <mxGeometry x="2.8279069767442055" width="87.37674418604655" height="83.98133748055987" as="geometry" />
        </mxCell>
        <mxCell id="QpJPM_pMCbOV_byNEW9--35" value="Post database" style="text;html=1;align=center;verticalAlign=middle;resizable=0;points=[];autosize=1;strokeColor=none;fillColor=none;" vertex="1" parent="QpJPM_pMCbOV_byNEW9--39">
          <mxGeometry y="58.7869362363919" width="100" height="30" as="geometry" />
        </mxCell>
        <mxCell id="QpJPM_pMCbOV_byNEW9--37" value="" style="sketch=0;shadow=0;dashed=0;html=1;strokeColor=none;fillColor=#2E73B8;labelPosition=center;verticalLabelPosition=bottom;verticalAlign=top;outlineConnect=0;align=center;shape=mxgraph.office.databases.database_availability_group;" vertex="1" parent="QpJPM_pMCbOV_byNEW9--39">
          <mxGeometry x="16.251162790697705" y="9.331259720062208" width="54.88372093023258" height="55.05443234836702" as="geometry" />
        </mxCell>
        <mxCell id="QpJPM_pMCbOV_byNEW9--41" value="" style="endArrow=classic;html=1;rounded=0;" edge="1" parent="QpJPM_pMCbOV_byNEW9--53">
          <mxGeometry width="50" height="50" relative="1" as="geometry">
            <mxPoint x="59.88688033714097" y="482.1428571428571" as="sourcePoint" />
            <mxPoint x="59.99999999999999" y="513.2192846034214" as="targetPoint" />
          </mxGeometry>
        </mxCell>
        <mxCell id="QpJPM_pMCbOV_byNEW9--42" value="" style="endArrow=classic;html=1;rounded=0;entryX=0.5;entryY=0;entryDx=0;entryDy=0;" edge="1" parent="QpJPM_pMCbOV_byNEW9--53" target="QpJPM_pMCbOV_byNEW9--31">
          <mxGeometry width="50" height="50" relative="1" as="geometry">
            <mxPoint x="60.46511627906976" y="348.05598755832034" as="sourcePoint" />
            <mxPoint x="60.46511627906976" y="373.2503888024884" as="targetPoint" />
          </mxGeometry>
        </mxCell>
        <mxCell id="QpJPM_pMCbOV_byNEW9--50" value="" style="endArrow=classic;html=1;rounded=0;entryX=0.5;entryY=0;entryDx=0;entryDy=0;" edge="1" parent="QpJPM_pMCbOV_byNEW9--53">
          <mxGeometry width="50" height="50" relative="1" as="geometry">
            <mxPoint x="205.1162790697675" y="348.05598755832034" as="sourcePoint" />
            <mxPoint x="204.18604651162798" y="382.5816485225506" as="targetPoint" />
          </mxGeometry>
        </mxCell>
        <mxCell id="QpJPM_pMCbOV_byNEW9--45" value="" style="outlineConnect=0;dashed=0;verticalLabelPosition=bottom;verticalAlign=top;align=center;html=1;shape=mxgraph.aws3.cache_node;fillColor=#2E73B8;gradientColor=none;" vertex="1" parent="QpJPM_pMCbOV_byNEW9--53">
          <mxGeometry x="173.9069767441862" y="386.3141524105754" width="35.45116279069769" height="37.32503888024883" as="geometry" />
        </mxCell>
        <mxCell id="QpJPM_pMCbOV_byNEW9--46" value="" style="outlineConnect=0;dashed=0;verticalLabelPosition=bottom;verticalAlign=top;align=center;html=1;shape=mxgraph.aws3.cache_node;fillColor=#2E73B8;gradientColor=none;" vertex="1" parent="QpJPM_pMCbOV_byNEW9--53">
          <mxGeometry x="184.13953488372104" y="404.97667185069986" width="35.45116279069769" height="37.32503888024883" as="geometry" />
        </mxCell>
        <mxCell id="QpJPM_pMCbOV_byNEW9--47" value="" style="outlineConnect=0;dashed=0;verticalLabelPosition=bottom;verticalAlign=top;align=center;html=1;shape=mxgraph.aws3.cache_node;fillColor=#2E73B8;gradientColor=none;" vertex="1" parent="QpJPM_pMCbOV_byNEW9--53">
          <mxGeometry x="194.2697674418605" y="423.63919129082416" width="35.45116279069769" height="37.32503888024883" as="geometry" />
        </mxCell>
        <mxCell id="QpJPM_pMCbOV_byNEW9--48" value="" style="rounded=1;whiteSpace=wrap;html=1;fillColor=none;strokeColor=#00BEF2;dashed=1;strokeWidth=2;" vertex="1" parent="QpJPM_pMCbOV_byNEW9--53">
          <mxGeometry x="168.44651162790709" y="382.5816485225506" width="70.57674418604653" height="111.97511664074648" as="geometry" />
        </mxCell>
        <mxCell id="QpJPM_pMCbOV_byNEW9--49" value="News Feed&amp;nbsp;&lt;div&gt;Cache&lt;/div&gt;" style="text;html=1;align=center;verticalAlign=middle;resizable=0;points=[];autosize=1;strokeColor=none;fillColor=none;" vertex="1" parent="QpJPM_pMCbOV_byNEW9--53">
          <mxGeometry x="162.79069767441862" y="460.03110419906693" width="90" height="40" as="geometry" />
        </mxCell>
        <mxCell id="QpJPM_pMCbOV_byNEW9--52" value="" style="endArrow=classic;html=1;rounded=0;" edge="1" parent="QpJPM_pMCbOV_byNEW9--53">
          <mxGeometry width="50" height="50" relative="1" as="geometry">
            <mxPoint x="204.0922701563713" y="273.40714285714284" as="sourcePoint" />
            <mxPoint x="204.05899966729515" y="310.71428571428567" as="targetPoint" />
          </mxGeometry>
        </mxCell>
        <mxCell id="QpJPM_pMCbOV_byNEW9--54" value="High level Design" style="text;html=1;align=center;verticalAlign=middle;resizable=0;points=[];autosize=1;strokeColor=none;fillColor=none;fontStyle=1" vertex="1" parent="QpJPM_pMCbOV_byNEW9--53">
          <mxGeometry x="9.300000000000015" y="94.11000000000001" width="120" height="30" as="geometry" />
        </mxCell>
        <mxCell id="QpJPM_pMCbOV_byNEW9--55" value="Load balancer" style="text;html=1;align=center;verticalAlign=middle;resizable=0;points=[];autosize=1;strokeColor=none;fillColor=none;" vertex="1" parent="QpJPM_pMCbOV_byNEW9--53">
          <mxGeometry x="219.58999999999997" y="125.44" width="100" height="30" as="geometry" />
        </mxCell>
        <mxCell id="QpJPM_pMCbOV_byNEW9--173" value="" style="group;fillColor=#d5e8d4;strokeColor=#82b366;" vertex="1" connectable="0" parent="1">
          <mxGeometry x="820" y="80" width="553.0267441860467" height="667.3299999999999" as="geometry" />
        </mxCell>
        <mxCell id="QpJPM_pMCbOV_byNEW9--57" value="" style="sketch=0;outlineConnect=0;fontColor=#232F3E;gradientColor=none;fillColor=#232F3D;strokeColor=none;dashed=0;verticalLabelPosition=bottom;verticalAlign=top;align=center;html=1;fontSize=12;fontStyle=0;aspect=fixed;pointerEvents=1;shape=mxgraph.aws4.mobile_client;" vertex="1" parent="QpJPM_pMCbOV_byNEW9--173">
          <mxGeometry x="241.8604651162791" y="21.461897356143083" width="23.6178163184864" height="44.93496255419787" as="geometry" />
        </mxCell>
        <mxCell id="QpJPM_pMCbOV_byNEW9--58" value="" style="sketch=0;pointerEvents=1;shadow=0;dashed=0;html=1;strokeColor=none;fillColor=#000000;labelPosition=center;verticalLabelPosition=bottom;verticalAlign=top;outlineConnect=0;align=center;shape=mxgraph.office.devices.laptop;" vertex="1" parent="QpJPM_pMCbOV_byNEW9--173">
          <mxGeometry x="130.23255813953494" y="28.92690513219283" width="53.95348837209304" height="31.726283048211506" as="geometry" />
        </mxCell>
        <mxCell id="QpJPM_pMCbOV_byNEW9--59" value="" style="edgeStyle=orthogonalEdgeStyle;rounded=0;orthogonalLoop=1;jettySize=auto;html=1;" edge="1" parent="QpJPM_pMCbOV_byNEW9--173" source="QpJPM_pMCbOV_byNEW9--61" target="QpJPM_pMCbOV_byNEW9--64">
          <mxGeometry relative="1" as="geometry" />
        </mxCell>
        <mxCell id="QpJPM_pMCbOV_byNEW9--60" value="" style="edgeStyle=orthogonalEdgeStyle;rounded=0;orthogonalLoop=1;jettySize=auto;html=1;" edge="1" parent="QpJPM_pMCbOV_byNEW9--173" source="QpJPM_pMCbOV_byNEW9--61" target="QpJPM_pMCbOV_byNEW9--65">
          <mxGeometry relative="1" as="geometry" />
        </mxCell>
        <mxCell id="QpJPM_pMCbOV_byNEW9--61" value="" style="rounded=1;whiteSpace=wrap;html=1;fillColor=none;" vertex="1" parent="QpJPM_pMCbOV_byNEW9--173">
          <mxGeometry x="111.62790697674427" width="186.04651162790702" height="72.78382581648522" as="geometry" />
        </mxCell>
        <mxCell id="QpJPM_pMCbOV_byNEW9--62" value="User" style="text;html=1;align=center;verticalAlign=middle;resizable=0;points=[];autosize=1;strokeColor=none;fillColor=none;" vertex="1" parent="QpJPM_pMCbOV_byNEW9--173">
          <mxGeometry x="130.23255813953494" y="0.9331259720062235" width="50" height="30" as="geometry" />
        </mxCell>
        <mxCell id="QpJPM_pMCbOV_byNEW9--63" value="User" style="text;html=1;align=center;verticalAlign=middle;resizable=0;points=[];autosize=1;strokeColor=none;fillColor=none;" vertex="1" parent="QpJPM_pMCbOV_byNEW9--173">
          <mxGeometry x="230.8279069767442" y="0.9331259720062235" width="50" height="30" as="geometry" />
        </mxCell>
        <mxCell id="QpJPM_pMCbOV_byNEW9--64" value="" style="image;sketch=0;aspect=fixed;html=1;points=[];align=center;fontSize=12;image=img/lib/mscae/DNS.svg;" vertex="1" parent="QpJPM_pMCbOV_byNEW9--173">
          <mxGeometry y="13.0637636080871" width="44.93496255419787" height="44.93496255419787" as="geometry" />
        </mxCell>
        <mxCell id="QpJPM_pMCbOV_byNEW9--65" value="" style="verticalLabelPosition=bottom;html=1;verticalAlign=top;align=center;strokeColor=none;fillColor=#000000;shape=mxgraph.azure.azure_load_balancer;" vertex="1" parent="QpJPM_pMCbOV_byNEW9--173">
          <mxGeometry x="181.39534883720933" y="129.9957542768273" width="46.511627906976756" height="32.65940902021773" as="geometry" />
        </mxCell>
        <mxCell id="QpJPM_pMCbOV_byNEW9--66" value="" style="rounded=1;whiteSpace=wrap;html=1;fillColor=none;strokeColor=#00BEF2;dashed=1;strokeWidth=2;" vertex="1" parent="QpJPM_pMCbOV_byNEW9--173">
          <mxGeometry x="166.58000000000004" y="197.82" width="173.42" height="75.58" as="geometry" />
        </mxCell>
        <mxCell id="QpJPM_pMCbOV_byNEW9--67" value="" style="sketch=0;pointerEvents=1;shadow=0;dashed=0;html=1;strokeColor=none;labelPosition=center;verticalLabelPosition=bottom;verticalAlign=top;outlineConnect=0;align=center;shape=mxgraph.office.servers.physical_host_farm;fillColor=#00994D;" vertex="1" parent="QpJPM_pMCbOV_byNEW9--173">
          <mxGeometry x="178.6046511627908" y="208.08709175738716" width="52.09302325581397" height="45.723172628304816" as="geometry" />
        </mxCell>
        <mxCell id="QpJPM_pMCbOV_byNEW9--68" value="Web servers" style="text;html=1;align=center;verticalAlign=middle;resizable=0;points=[];autosize=1;strokeColor=none;fillColor=none;" vertex="1" parent="QpJPM_pMCbOV_byNEW9--173">
          <mxGeometry x="163.7209302325582" y="249.14463452566088" width="90" height="30" as="geometry" />
        </mxCell>
        <mxCell id="QpJPM_pMCbOV_byNEW9--69" value="" style="endArrow=classic;html=1;rounded=0;" edge="1" parent="QpJPM_pMCbOV_byNEW9--173">
          <mxGeometry width="50" height="50" relative="1" as="geometry">
            <mxPoint x="204.18604651162798" y="152.09953343701397" as="sourcePoint" />
            <mxPoint x="204.65116279069764" y="198.75583203732504" as="targetPoint" />
          </mxGeometry>
        </mxCell>
        <mxCell id="QpJPM_pMCbOV_byNEW9--70" value="Post service" style="rounded=1;whiteSpace=wrap;html=1;" vertex="1" parent="QpJPM_pMCbOV_byNEW9--173">
          <mxGeometry x="0.002325581395439258" y="212.29094867807146" width="102.32558139534885" height="37.32503888024883" as="geometry" />
        </mxCell>
        <mxCell id="QpJPM_pMCbOV_byNEW9--172" value="" style="edgeStyle=orthogonalEdgeStyle;rounded=0;orthogonalLoop=1;jettySize=auto;html=1;entryX=1;entryY=0.5;entryDx=0;entryDy=0;" edge="1" parent="QpJPM_pMCbOV_byNEW9--173" source="QpJPM_pMCbOV_byNEW9--71" target="QpJPM_pMCbOV_byNEW9--152">
          <mxGeometry relative="1" as="geometry" />
        </mxCell>
        <mxCell id="QpJPM_pMCbOV_byNEW9--71" value="Fanout service" style="rounded=1;whiteSpace=wrap;html=1;" vertex="1" parent="QpJPM_pMCbOV_byNEW9--173">
          <mxGeometry x="154.4186046511628" y="310.7309486780715" width="102.32558139534885" height="37.32503888024883" as="geometry" />
        </mxCell>
        <mxCell id="QpJPM_pMCbOV_byNEW9--72" value="Notification service" style="rounded=1;whiteSpace=wrap;html=1;" vertex="1" parent="QpJPM_pMCbOV_byNEW9--173">
          <mxGeometry x="392.20000000000005" y="211.81" width="112.33" height="37.33" as="geometry" />
        </mxCell>
        <mxCell id="QpJPM_pMCbOV_byNEW9--81" value="" style="group" vertex="1" connectable="0" parent="QpJPM_pMCbOV_byNEW9--173">
          <mxGeometry x="4.353488372093125" y="402.8892846034214" width="93.02325581395351" height="86.78071539657853" as="geometry" />
        </mxCell>
        <mxCell id="QpJPM_pMCbOV_byNEW9--82" value="" style="rounded=1;whiteSpace=wrap;html=1;fillColor=none;strokeColor=#00BEF2;dashed=1;strokeWidth=2;" vertex="1" parent="QpJPM_pMCbOV_byNEW9--81">
          <mxGeometry x="2.8279069767442055" width="87.37674418604655" height="83.98133748055987" as="geometry" />
        </mxCell>
        <mxCell id="QpJPM_pMCbOV_byNEW9--83" value="Post database" style="text;html=1;align=center;verticalAlign=middle;resizable=0;points=[];autosize=1;strokeColor=none;fillColor=none;" vertex="1" parent="QpJPM_pMCbOV_byNEW9--81">
          <mxGeometry x="-3" y="56.7869362363919" width="100" height="30" as="geometry" />
        </mxCell>
        <mxCell id="QpJPM_pMCbOV_byNEW9--84" value="" style="sketch=0;shadow=0;dashed=0;html=1;strokeColor=none;fillColor=#2E73B8;labelPosition=center;verticalLabelPosition=bottom;verticalAlign=top;outlineConnect=0;align=center;shape=mxgraph.office.databases.database_availability_group;" vertex="1" parent="QpJPM_pMCbOV_byNEW9--81">
          <mxGeometry x="16.251162790697705" y="9.331259720062208" width="54.88372093023258" height="55.05443234836702" as="geometry" />
        </mxCell>
        <mxCell id="QpJPM_pMCbOV_byNEW9--85" value="" style="endArrow=classic;html=1;rounded=0;" edge="1" parent="QpJPM_pMCbOV_byNEW9--173">
          <mxGeometry width="50" height="50" relative="1" as="geometry">
            <mxPoint x="50.66688033714104" y="371.3328571428571" as="sourcePoint" />
            <mxPoint x="50.780000000000086" y="402.40928460342144" as="targetPoint" />
          </mxGeometry>
        </mxCell>
        <mxCell id="QpJPM_pMCbOV_byNEW9--86" value="" style="endArrow=classic;html=1;rounded=0;entryX=0.5;entryY=0;entryDx=0;entryDy=0;" edge="1" parent="QpJPM_pMCbOV_byNEW9--173">
          <mxGeometry width="50" height="50" relative="1" as="geometry">
            <mxPoint x="50" y="249" as="sourcePoint" />
            <mxPoint x="50.24883720930211" y="283.8516485225505" as="targetPoint" />
          </mxGeometry>
        </mxCell>
        <mxCell id="QpJPM_pMCbOV_byNEW9--93" value="" style="endArrow=classic;html=1;rounded=0;" edge="1" parent="QpJPM_pMCbOV_byNEW9--173">
          <mxGeometry width="50" height="50" relative="1" as="geometry">
            <mxPoint x="204.09227015637134" y="273.40714285714284" as="sourcePoint" />
            <mxPoint x="204.0589996672952" y="310.71428571428567" as="targetPoint" />
          </mxGeometry>
        </mxCell>
        <mxCell id="QpJPM_pMCbOV_byNEW9--95" value="Load balancer" style="text;html=1;align=center;verticalAlign=middle;resizable=0;points=[];autosize=1;strokeColor=none;fillColor=none;" vertex="1" parent="QpJPM_pMCbOV_byNEW9--173">
          <mxGeometry x="203.66999999999993" y="160" width="100" height="30" as="geometry" />
        </mxCell>
        <mxCell id="QpJPM_pMCbOV_byNEW9--101" value="" style="endArrow=classic;html=1;rounded=0;" edge="1" parent="QpJPM_pMCbOV_byNEW9--173">
          <mxGeometry width="50" height="50" relative="1" as="geometry">
            <mxPoint x="163.72000000000003" y="229.97000000000003" as="sourcePoint" />
            <mxPoint x="103.72000000000003" y="229.97000000000003" as="targetPoint" />
          </mxGeometry>
        </mxCell>
        <mxCell id="QpJPM_pMCbOV_byNEW9--102" value="" style="endArrow=classic;html=1;rounded=0;entryX=0;entryY=0.5;entryDx=0;entryDy=0;" edge="1" parent="QpJPM_pMCbOV_byNEW9--173" target="QpJPM_pMCbOV_byNEW9--72">
          <mxGeometry width="50" height="50" relative="1" as="geometry">
            <mxPoint x="340" y="229.97000000000003" as="sourcePoint" />
            <mxPoint x="387.27" y="230" as="targetPoint" />
          </mxGeometry>
        </mxCell>
        <mxCell id="QpJPM_pMCbOV_byNEW9--106" value="" style="group" vertex="1" connectable="0" parent="QpJPM_pMCbOV_byNEW9--173">
          <mxGeometry x="241.86" y="213.81" width="90" height="40" as="geometry" />
        </mxCell>
        <mxCell id="QpJPM_pMCbOV_byNEW9--104" value="Authentication" style="rounded=0;whiteSpace=wrap;html=1;" vertex="1" parent="QpJPM_pMCbOV_byNEW9--106">
          <mxGeometry width="90" height="20" as="geometry" />
        </mxCell>
        <mxCell id="QpJPM_pMCbOV_byNEW9--105" value="Rate Limiting" style="rounded=0;whiteSpace=wrap;html=1;" vertex="1" parent="QpJPM_pMCbOV_byNEW9--106">
          <mxGeometry y="20" width="90" height="20" as="geometry" />
        </mxCell>
        <mxCell id="QpJPM_pMCbOV_byNEW9--107" value="" style="sketch=0;aspect=fixed;pointerEvents=1;shadow=0;dashed=0;html=1;strokeColor=none;labelPosition=center;verticalLabelPosition=bottom;verticalAlign=top;align=center;fillColor=#00188D;shape=mxgraph.azure.queue_generic" vertex="1" parent="QpJPM_pMCbOV_byNEW9--173">
          <mxGeometry x="168.72000000000003" y="384.63" width="80" height="24" as="geometry" />
        </mxCell>
        <mxCell id="QpJPM_pMCbOV_byNEW9--108" value="" style="endArrow=classic;html=1;rounded=0;entryX=0.441;entryY=0.224;entryDx=0;entryDy=0;entryPerimeter=0;" edge="1" parent="QpJPM_pMCbOV_byNEW9--173" target="QpJPM_pMCbOV_byNEW9--107">
          <mxGeometry width="50" height="50" relative="1" as="geometry">
            <mxPoint x="204.14999999999998" y="348.06" as="sourcePoint" />
            <mxPoint x="204" y="380" as="targetPoint" />
          </mxGeometry>
        </mxCell>
        <mxCell id="QpJPM_pMCbOV_byNEW9--113" value="" style="group" vertex="1" connectable="0" parent="QpJPM_pMCbOV_byNEW9--173">
          <mxGeometry x="150.5809302325581" y="450" width="110" height="82.00463452566089" as="geometry" />
        </mxCell>
        <mxCell id="QpJPM_pMCbOV_byNEW9--110" value="" style="rounded=1;whiteSpace=wrap;html=1;fillColor=none;strokeColor=#00BEF2;dashed=1;strokeWidth=2;" vertex="1" parent="QpJPM_pMCbOV_byNEW9--113">
          <mxGeometry x="11.429069767441888" width="87.14" height="80" as="geometry" />
        </mxCell>
        <mxCell id="QpJPM_pMCbOV_byNEW9--111" value="" style="sketch=0;pointerEvents=1;shadow=0;dashed=0;html=1;strokeColor=none;labelPosition=center;verticalLabelPosition=bottom;verticalAlign=top;outlineConnect=0;align=center;shape=mxgraph.office.servers.physical_host_farm;fillColor=#00994D;" vertex="1" parent="QpJPM_pMCbOV_byNEW9--113">
          <mxGeometry x="28.953720930232635" y="10.267091757387107" width="52.09302325581397" height="45.723172628304816" as="geometry" />
        </mxCell>
        <mxCell id="QpJPM_pMCbOV_byNEW9--112" value="Fanout workers" style="text;html=1;align=center;verticalAlign=middle;resizable=0;points=[];autosize=1;strokeColor=none;fillColor=none;" vertex="1" parent="QpJPM_pMCbOV_byNEW9--113">
          <mxGeometry y="52.00463452566089" width="110" height="30" as="geometry" />
        </mxCell>
        <mxCell id="QpJPM_pMCbOV_byNEW9--114" value="" style="endArrow=classic;html=1;rounded=0;entryX=0.441;entryY=0.224;entryDx=0;entryDy=0;entryPerimeter=0;" edge="1" parent="QpJPM_pMCbOV_byNEW9--173">
          <mxGeometry width="50" height="50" relative="1" as="geometry">
            <mxPoint x="204.29999999999995" y="408.63" as="sourcePoint" />
            <mxPoint x="204.14999999999998" y="450.57" as="targetPoint" />
          </mxGeometry>
        </mxCell>
        <mxCell id="QpJPM_pMCbOV_byNEW9--116" value="" style="endArrow=classic;html=1;rounded=0;entryX=0.441;entryY=0.224;entryDx=0;entryDy=0;entryPerimeter=0;" edge="1" parent="QpJPM_pMCbOV_byNEW9--173">
          <mxGeometry width="50" height="50" relative="1" as="geometry">
            <mxPoint x="204.29999999999995" y="528.06" as="sourcePoint" />
            <mxPoint x="204.14999999999998" y="570" as="targetPoint" />
          </mxGeometry>
        </mxCell>
        <mxCell id="QpJPM_pMCbOV_byNEW9--117" value="Message&amp;nbsp; &amp;nbsp;queue" style="text;html=1;align=center;verticalAlign=middle;resizable=0;points=[];autosize=1;strokeColor=none;fillColor=none;" vertex="1" parent="QpJPM_pMCbOV_byNEW9--173">
          <mxGeometry x="135.72000000000003" y="399.63" width="120" height="30" as="geometry" />
        </mxCell>
        <mxCell id="QpJPM_pMCbOV_byNEW9--130" value="" style="group" vertex="1" connectable="0" parent="QpJPM_pMCbOV_byNEW9--173">
          <mxGeometry x="360" y="279.89" width="87.1400000000001" height="99.00463452566089" as="geometry" />
        </mxCell>
        <mxCell id="QpJPM_pMCbOV_byNEW9--123" value="" style="rounded=1;whiteSpace=wrap;html=1;fillColor=none;strokeColor=#00BEF2;dashed=1;strokeWidth=2;" vertex="1" parent="QpJPM_pMCbOV_byNEW9--130">
          <mxGeometry width="87.14" height="95" as="geometry" />
        </mxCell>
        <mxCell id="QpJPM_pMCbOV_byNEW9--121" value="" style="group" vertex="1" connectable="0" parent="QpJPM_pMCbOV_byNEW9--130">
          <mxGeometry x="13.569999999999936" y="7.5" width="60" height="70.90999999999997" as="geometry" />
        </mxCell>
        <mxCell id="QpJPM_pMCbOV_byNEW9--119" value="" style="shape=cylinder3;whiteSpace=wrap;html=1;boundedLbl=1;backgroundOutline=1;size=15;" vertex="1" parent="QpJPM_pMCbOV_byNEW9--121">
          <mxGeometry width="60" height="65" as="geometry" />
        </mxCell>
        <mxCell id="QpJPM_pMCbOV_byNEW9--129" value="" style="shape=image;verticalLabelPosition=bottom;labelBackgroundColor=default;verticalAlign=top;aspect=fixed;imageAspect=0;image=data:image/png,iVBORw0KGgoAAAANSUhEUgAAAlgAAAJOCAYAAABr6XlaAAAABHNCSVQICAgIfAhkiAAAAAlwSFlzAACspwAArKcBX1MAwgAAABl0RVh0U29mdHdhcmUAd3d3Lmlua3NjYXBlLm9yZ5vuPBoAACAASURBVHic7N13eJRV9gfw73lnJgm9995BBEGUZAJIVERZgSRgcIVMRN1FXXWt667uumbV3+pa17K2VcQkYImQgordKJAEkA7Se6T3kjLlPb8/ANdCScjce2cm5/M8+6zEON8DM2TO3Pe+5xKEECJEXJx4QzsHAj0soDuIezLQEuAGANVloA4B9QA0AKMOCE4ARwAcAuEYGEcBHGHgEBj7CbyWQWvYGVhda9/2TQUFBX6zvzshRE1CpgsQQtRA6elW/JLNfW2yL4PNFxOhB4DuAOooSvQB2AhgFYGWMvHXDcsbFs+a9WKFojwhRA0nDZYQQovBY8d3tgOOYQwMA3AZgCaGSyoD8yK2rDmw8cWRqLJvV2Znew3XJISIENJgCSGUGZycekEAdD2AcWC0MV3PWRwGkGcTZ867oOuXSE+3TRckhAhf0mAJIYJqyJjUVn4b4wBKA3Ch6XrODW1n5g+IaUpRfsZi09UIIcKPNFhCiGCguNGpo4joVhCuAOAwXVAQLWbwf2MaOt8qmDKl3HQxQojwIA2WEOLcpadbcYs3XG0RHmZggOlyFNtNoFcqXGXPLczOPmS6GCFEaJMGSwhRZQMmTXJF7Sq9DqAHQOhpuh7N9hHoJXa5XijKfnO/6WKEEKFJGiwhRFWQOzntBjA/DKC96WIMOwzw895A7ScWzny91HQxQojQIg2WEKJSYken9bXIfhlEg0zXEmJKQLinKCcz23QhQojQIQ2WEOKM+g731Klbm/7E4AcARJmuJ4R9yHDcUZw7ZbPpQoQQ5kmDJYQ4rbjEtGvJ4mfCYIZVqChl5v87ElXxtAwtFaJmkwZLCPErsSMm1Kco6zUi/NZ0LWHqO4cjcO2c6dM2mi5ECGGGNFhCiJ9xj07rDwvvAdzNdC1h7jARbi7MyXzXdCFCCP2kwRJC/MidmJoGolcA1DZdSwTJhKv85qLs7DLThQgh9JEGSwiBASkpDaJ8Mf8FkGK6lgi1CDZfW5Sftd50IUIIPaTBEqKGGzImtZXPplkEXGC6lgh3wCYaPS8nY47pQoQQ6lmmCxBCmDN47PjOfptmS3OlRSOL+dP4MalXmy5ECKFeJB3IKoSogkGjPRfZsL4C0M50LTWIC0zXtu3Rd3vJmmWLTBcjhFBHGiwhaqD4ZM9lTPgYQGPTtdRAFhGNat+zH21bvbTAdDFCCDWkwRKiholL9owBIwdyp6BJBCChXc8LoktWL/vSdDFCiOCTBkuIGiQuKTWBmGaAEG26FgEAGNKuR99jJWuWFZouRAgRXNJgCVFDHD+sGZ+AUNd0LeIniK5o16vftpLVSxebLkUIETzSYAlRAwweO74zmL4GoanpWsSvEICR7Xr2XVayetlq08UIIYJD5mAJEeEuTpnY0ukLzAHQxXQtQWNZgMMCfH7TlQRTKRENK8zJKDJdiBCi+qTBEiKCuVNSasEXMwfAhaZrqTSXE1bLxqBmDUFNG8Bq2hDUpD4Q7QLVigZHOUGO44vvzAwq94IrfGCvDzhwBPaeQ+C9B8F7D4F37AOXVRj+DVXJPoIVW5j79gbThQghqkcaLCEimDvJ8xqASabrOCPLgtWuOawurWF1bg2rfUvAGZwZyMwM7NiPwMbtsDf8AHvzDqDCF5THVoWAhQ0qGg6aNevFsOoMhRA/Jw2WEBEqLil1HIHeM13H6VhtmsLRvxusC7qC6tTSE+q3EVi3DfbidQh8vxmwbT25VcSMF4rzMu80XYcQ4txJgyVEBIodO76bFXAsBFDPdC0/E+2Cc2AvOC7qCWrW0GgpfKwMgcXrEShcDj541Ggtp8KEscU5mTNM1yGEODfSYAkRYUaMuCP6YPTBIgD9TddyEtWOgcPdG47480G1QmwEl20jsGQ9/N8sAe85aLqanzoYCODC+TMzN5kuRAhRddJgCRFh4pPSXmbwrabrAAByOeFI6AfnoD5AlMt0OWdmMwJL18P3yTzgSKnpak5a4G1ea9DC118P7Y1jQohfkTlYQkSQ2OS0wQT+D0Lgw5PVsz2i0q6C47yOgCMMftQQwWrVBI7Y8wBm8LbdALPpqto4SgNHSlYvlUnvQoQZ4z+EhRDBMWDSJFfUnrLFYPQ2Wki92nAlDYajV0ejZVQX79gH34xvYP+w13Qpx/zs7LUg761tpgsRQlRecO6FFkIYF7Wn/C7TzZXVpTVibh8T9s0VAFCrJoi6NQmOof0AMvpZtI6D/M+ZLEAIUXWyglUNA0ZNql3LPhoNAOyI8c/Nn3zEdE2iZoodM6GtZVurAEPnDFoE56UXwnHZhSCzzYgS9qot8H5QABgcWkoWjyyckfWRsQKEEFUSeT8Jq2nImNRWdgBdbaATEzpZoI420JyAJgCaAmgGoP5ZHuYogH0E7GVgL4P3ALSZgM1E2GSzY2Nx7pQtAIxv8BCRIS7J8wEBY42ER7sQNWE4rK5tjMTrwvsPw/vWLPC+Q6ZK2BDd0HF+wZQp5aYKEEJUXo1usGLHju9GtjOeGP0B7gPgAhxvpHQ4DGAFiJfDthYDgcKi/t1WIj09NCcfipAVl5g2jIg/N5FNdWrBNXEErDY14wxpPlYG35RZxvZlEfBQYW7mY0bChRBVUqMarEGjU3vYFq4CKAFAPIDmhkv6BToE5iIGz4YDnxTPyFoMWeUSZxGf5JnNwGDdudSoLqIm/sb4wFDtvD54p30Oe22JgXA65HWVdViYnW1sGU0IUTkR3WAlJCQ4Kxq0u5yIEhl8FYBOpmuqol0Af0LATHZVfFyUnV1muiARWtzJnqFgFOjOpQZ1EHVLEqhBHd3RocFvwzvlY9gbt+vPJnqgKCfjCf3BQoiqiLwGKz3dil+6IYEZ1xIwho/vm4oERwGaCdjvH3ZVfLwyO9truiBhXnyS5zMGrtCZSbVjEHXz6Jq3cvVLFT5435hp4nLhbm+gVqeFM18PmWmoQohfi5gGa8iY1FaBANKY6GaE30pVVR0E8D7Yfqkob+py08UIM+LGpF5INn0HjX+PyeWE68arYXVooSsytB0rR8Xr+dqP2CHCnYU5mS9oDRVCVEnYN1gnLpHcDWAkauJkeuJvYVv/LurfOU82yNcs7iRPLoBEbYFEcKVeEREzroKJ9x2C9z854HKti8olDSsadp0160VzcyOEEGcUlg1WQkKC09uo3TXMuBfARabrCQ20jmE/R66KKbJXK/INGnV9b9thL4fGv8OOIX3hGhGnKy6s2Cs2wTtN742czPz74rysN7SGCiEqLbxWfNLTLXejdtfYMQ2mM3AzgNamSwohTQh0NWznpPY9+lpt+/ZYVPL9937TRQk12vbu+wAAt648q01zuK69FGTJ4Q+nQs0bgY+Vg0v2aEy1mpesWfqmxkAhRBWEzQpWfFLqWAY9AuA807WEiRIwPRZ9aOubBQUF0mhFkBN3x24DoaWWwJgoRN9xDaiRmSHxYcNvo+LVHPD2fdoiA0Q95udkrNUWKISotJD/OBo3JvVCd3LqNwz6ANJcVUVbEL9a0bDdikGJnt+YLkYEj69Bu+HamisAruEDpbmqDKcF15ihgKXvc6uD7VRtYUKIKgnZBis+2dM8LjltMtm0AEyXmK4njPWwCR+5kzz58UnXdzFdjKi+AODRlWW1aQrHwF664sKe1bopHAN1fg6kNKSnh+zPcSFqspDcgxWf5PEAyAcwCGF0GTPE9QD4d+169PV2bdV4/ubNm+WOwzAUO2JCfctJ/wXgUp1FRHBNGA5qKKtXVWF1aInAorWA16cjrmH77Ye+2rZm6RYdYUKIygupTz7xY8Z3cCd6ZjGQEUEDQkNJbRA95W3YrnhwcuoFposRVWfFOK4BUFtL1kU9YLULsdOkwgDFRME1/GJteWzZadrChBCVFjINljvZk8K2YzEIV5muJdIxMCDAtCA+KS1dLi+EGRtjtORYFpxD+2uJikSO/t1AjevpikuSv8dChB7jfyljR0yo707yZIDxPoBGpuupQVwMfti9ZMPnsWMmtDVdjDi7hIQEJ4iH6Mhy9Ouqs0GIPJYFxyXaFombxC/Z3FdXmBCicow2WIOTUy+woq3F0LhpV/zKZZZtLYlPun646ULEmXkbtb8YQH3VOUQE5xC5glxdzgt7ajsM2yb7Mi1BQohKM9ZguZNSrwswzQXQ2VQN4kdNGPbHcskwtNm2famOHKtne1ALWUyuNqcFh/t8LVFkQxosIUKM9jfTlJQUhzvJ8xxA0wDo+XgnKsNx4pJh9oBRk7RsohZVQ2RpeRO1LuyuI6ZGcPTrqmcuFvElAyZNUn5nqRCi8rQ2WH2He+qU+GKmA7hLZ66okjEuR1mhe2RaG9OFiP8ZMeKOaIDjVedQrWg4enRQHVNjUP06sLpo+atUL2bvsQE6goQQlaOtwbo4ZWLLOrVRACBRV6Y4NwRcABfPk1EOoeNgzME4ALVU51gXdAGccpU4mBwXdtOSEwiQXCYUIoRo+UkaP2Z8B6cvMBvARTryRBAw2gSYCgaNmRBnuhRxounVwHGBnmagJrHO6wS4nMpziCz5QCRECFHeYA0c5enEtuNrAF1VZ4mga2jb1hfxyR75ZGyYzdxDeUi0C1a7ZspjahpyOWF1aKEhyZbNc0KEEKUN1qBR1/d2WCgE0ElljlCqDjNmxianXmG6kJqMYClvsKxOrQBLLg+qYHVurSGFustdwEKEDmV/GWPHju9mW/YXILRUlWGKZVmoV7cOGtSri9YtmqN1i+Zo1KA+6tWtA6cjJI93rK7aFlPuoMRULUMuxamoX8GyOst9Dao4uuhosFD74sVb5EkUIkQo2RgQP2Z8Bw44wrq5at2iGbp0aIfO7duidYtmaNW8KZo3aYyGDeqjft0zT5c4VlqGg4ePYM++A9ixew+279qDTdt+wPot21CyYxdsOyzPWa5tE30YP2bCsMIZUxeYLqYm6TvcUweA8jdOh5ZVlpqJ2jQDol1AhdoDoC3L1xPANqUhQohKCXqDFTv6uhZsO74A0D7Yj62KZVno1bUTLurbG316dsX5PbqdtYk6kzq1a6FO7Vpo07I5+vX++cJDWXk5vl+3EctWrcOiFauwbNVa+Pz+6v4WdKnPtvVJbOKEIfPypn5vupiaok4MdQdY7TAlywJaNFQaUaNZFqh5Y/C2XWpjQN0BfK40RAhRKUFtsAaMmlTbssryEQYb2qNcLsRd2BeXxl+M2H590LC+nnPXasXEYECf8zCgz3m4YVwiysrLsWDpShQUf4c58xfjaGmpljqqobFF1kcXp0x0L8iestN0MTUBE7qrHlVJjeqBIvPydsiwmjVAQHGDRQz1N0MIISoleA1WeroVtXR9FpgGBu0xFejTsxtGX5GAhLiLUKe28rFCZ1UrJgaXxA7AJbED4PX5ULhwKWZ+8Q3mLV4eypcSOzp9gZl9h3sSln2Wecx0MZGOLG4KVpzRrIHaAAFqqv7PmBG+2zKEOgkpKXX95bUa+112UwSsxpbDjmam2gBANte1Lcsm8IlP93yEQF4LvM9HvM9yePcVZWeXmaw/XAWtwXIv3fgvMCUH6/GCKcrlwohLB2Pc1cPRqX3o7gGNcrmQEHcREuIuwq69+zF91hfI/fQrHD0WkqtaF9WpjSwAYwDVb/81HdVT/UdsaXjzr+mspuovwTKhqfIQEXISEhKcZQ3adCc4+hChO8AdAepw/P/RtsKHaDgYZBNADLb/tybORCD+6c8XAgMIgGAxAXYM3EmeUjC2AtgMYDOBNzOstQ6nf+mc6dM2Qd4DTikoVx7iEtOuJeJ3g/FYwVS7VgzGXT0cKSOHo1GD+qbLOSdl5eXI/awAU3M+wv6Dh0yX8ytM+FtxTub/ma4jksUneh5jwl9VZrhGxWs7mLim4u37UPHSdMUptLwoN6Ov4hBhFsUle3oSIx5APIB+YJwHQoyheo4AWAHGIra4yCJ7TuGMaVsM1RJSqt1gxSd7zmdGMULo4GaXy4mUq4cjNflqbXurVCsrr8D0jz9HxowPQ21FywbjN0V5mZ+aLiRSxSV6nifCH1VmuMYmwDFA5lSqxIeOoeJfU1XHbC3KzZTDJCNMfNL1XZjsq8C4Esebqiamazojwg9sYzYInwZcjk9q6n7dajVYg0bfWM+2/AsBDpnzNRLiLsLtE3+L1i2amy5FiYOHj+D1aR8g//NvQmmP1n5HgPrPmZmx1XQhkcid5HkTwI0qM6LGXwHrfJkHrBJ7/ahIn6w6ZldRbqbswwp36enWoMXrB9lkjSXwCAbC+dMPA1hCjI8ti7Pn5GQtNV2QLtXag8WW7wUAIdFcNW3cCPdNSsMlsZF9oHzD+vVw/y03IPnKy/H4y29i9fpNpksCgMYBB2elpKRcmp2dHTBdTMQhrq96SgOiXWofXwAuLXdpRusIEWrEJ6e5mXEtlm64xiZqA3AkbG4iAP2Z0D/A9Fd3kmcNwO/bzO9G+rifc26w4hPTrmHwxCDWck6ICMlXXobbrr8WtWJMXYLWr1un9nj9ib8ja8aHmPxeLvwB433NkG3e6D8D+KfpQiKOTXWDs1vyDKKkwVKNiI7PG1O78iwNVphJSJrY0IvAOCbcxszH989FQFd1Bj0Aesgieig+ybMQwOtRrvJpBdnZR00XFmzndFSOe2RaGyZ+LdjFVFWjBvXx5IN3476br69RzdVJTocDE1MS8doTD6FdK/NXBYgofdBoz0Wm64g8pL575pC53BzRfn63lhLyRIaJQaM9F7mTPFMrENjJwGtg1LibExgYwMBrFb5aJe5Ez0uxY8eHxBWxYDm3swid/BKAxsEtpWr69uyGt599FIMu6meyjJDQq2tnTHn2EVw+KNZ0KS7boskDJk2S5ZAgYvAR5SGKj3ARAGwbrL7BqlAdIKohPd2KS0wb5k7yzLQtLAAwHrLqCIAbgHCbFXCsdid5ZsYlpg0zXVEwVLnBiktKHQcgSUEtlTZ2xDC89NiDaNq4kckyQkqtmBg8cu8fcNv1v4VlKTvDuxK4T/Tusj8bLCASSYMVCbxajsSSBisUpadbcUmp49xLNiwn4s8BjDRdUoiyAIwk4s/jkzyzB41Ou9R0QdVRpXdid8pNjQn0gqpizsayLNz9u1TcOykNTjnW41eICBOSfoN/3n8HYqKjjNXBjL8OGp0qR3YEiUXqV7BYGizluLRcR4yWEFF5cYlpw9xLNiwg0HsAzjNdT7hgYLBt8VfuxNQ54dpoVanBYl/FowBaKKrljFwuJ/55/x1IuXq4ifiwcknsALz06INoUK+umQIIMWzRi2bCI5GlvsEq96qOqPH4iPrTRgjYrzxEVEps0vUD3Emeb0+sWF1oup6wRTTItvgrd5JnZnzS9V1Ml1MVlW6wYhMnnEegSSqLOZ2Y6Cg89eA9ET+CIZjO69YZr/zzb8YuozJwRVyiZ5SR8AjDbCu/u4b3hd4pAZFGx58xM/YoDxFnNGRMait3kuc1C/Y8AENM1xNBRjLsVXGJnucHpKSExdlelW6wHGT9G8E8HLqSYqKj8MxD92FgPznGo6o6tm2Nlx59AE0aqT8D7VSI6JneKSnmrlVGDA0rWHulwVJNx58xE+9VHiJOLT3dciel3u63aQ2ASQBkH0vwuYjwxyhfzKq4ZM8Y08WcTaUarEGJnt8wcIXqYn7J5XLiib/chf69e+qOjhjtW7fE8+n3GzoyiLvV90XfaiA4slj4QXWEveeg6ogaz96r/s+YQNuUh4hfiR07vpt7yYYvAXoRQGSczxbaWhFjujvJMzN2zIS2pos5nco0WMSER5RX8gsWER655zZZuQqCzu3b4pmH7kWtGBN3A9MDfYd7QuacynBkW/41ykOOlMo+LMW0rGABa5WHiB+lpKQ44hJTH7QCjhUAEkzXUwONtGxreXySx2O6kFM5a4PlTkxLYkD75qc7bhiPoXGy5ypYenXtjEfvu83ECIcWtWvjNt2hkaTWvu2bACjvfrhEtu8oU+ED71a/guWw7NXKQwQAYPCotPYlvpgviej/AMhWCHMaMpDhTk7NdqfcZHQ+5y+d+d02Pd0C4R+aavlR0pWX4tpRV+qOjXjxA/rhtrRrtecScP+g0TfKsvk5Kigo8IOxUXWOvXG76ogaK7Bxu+ojcgAAtiNGVrA0iE/2/DbgwDIAQ03XIk5gugY+7+L40ddfYrqUk87YYMUtWj8S4D66igGA3t274u6bQnK1LyJclzgCwwZrn/jehC2fkTtQIwZB+WXCwAZpsFThTVr+bPcUZb8pYxoUSkhIcMYlpz3BjHcADos72WqY9mzZX8Unpv4ZUH6C61mdscEii+7RVQgANKxfD/+8/w64XNpvVqxRHrjtJnRo00p37J1yhM65I6hvsPiHPbIPS5HAevUNlo7XSE02JOWGZhUN231KzHJSRWhzMNET7iRPTuyICfVNFnLaBuvEob1alz/vu/l6NGsix9+oVismBv+45w9wOfU1sgy0c+0pHactMMIwkfo3T9uGvb5EeUxNw4eOAbvULyzJBnd1YpOuH+D3BZYAuMx0LaLSEq1ox5zBo9LamyrgtA2WbeFunYWMGjYUl8UP1BlZo3Xv3AGTJlyjNdNi0vqaiiQEnq8jx168XkdMjRJYsk7HIc8gYJ7ykBrInei50oL9NcCtTdciqor7BCyed2LBSLtTNlgDk9OagKFtiFeTRg1x+/W/1RUnTrgucQTO79FVWx4DA+LGpMqREeegMCdzJRg7VecE1mwFHy1VHVOjBJboaVrZ5q+0BNUg8UmeSSB8CJltFb4ILW0LBXGjU0frjj5lg2XZnAZCjK4i/nTz9ahXV0Yl6WYR4f5bJmo9OJsC9HttYZGFGShQnmLbsJcrv2GxxuCSPWANlwcJ2FaUnyXLj0EUn5j6ZwZeg4ETTETQ1SGLZsQnpt6gM/SUDRYRfqergPgB/eSMQYO6dmyPMSOG6QskTEhISTF0CnV4swhf68gJfLf6eDsnqs3/nZ6xVAxZvQoiik9KfYaJnjBdiAgqBxO96U5KvVNX4K8687hETyyA87SEOxy444brdESJM7jp2iR89m0hDh5WfuQdANTz+molAcjSERZJAo7A11ZA/WqjvWM/7LXbYPUwtjc0IvDRMgQWr9MUBmmwgiE93XIvXf8yM91supRgIiI0adQQjRrUQ4N69VC/bh3UrVMbRASHwwLbDJsZgUAAR0vLcPjIURw6chT7Dx7CgUOHTZcfTATQc+7EVFdRXtbTqsN+1WBZxONY0/iIxOGXmhgXIH6hXt06mJgyGv9+c6qWPAaPgzRYVTZv+rR17iTPFgAdVGf5v1qEKGmwqiXw7RLA59eSZTtkBSsIKG7J+heB8G2uLCJ0bNcG3Tq1R5cO7dC1Yzu0btEcrZo1PefxR+UVXuzYvQclO3Zhw5ZtWL95G9Zu2oKSHbuCXL02BKKn3EmpvqLcrOfVBv3i1+4kz2YAyn+yRrlcyH7laRnLECK8Ph/G3fon7N6nZU6hF66oVjIUseriktMmE7OWfQRRvxsJq7PcOHVOjpWj4qlpYK+GBouxuigvs5f6oMjmTk57Csz3ma6jKogIPTp3QGz/vujbqzv69OyKurVra8nef/AQVqxZj0UrVqN48TJs/WGHltwgYmaeVJyX9YaqgJ+1tO7EVDc0NFcAMGbE5dJchZAolwtpY0fh6dff1hLHPu9oAFN0hEUSi+ldhp4Gy//5AkRNGg2Q8YHIYcf/zWI9zRUAJn5XS1AEi09KS+cwaa4cDgcu7tsblw0aiPgBF6BxQzMD5Rs3bIBLYgec2EM9Adt37cGcBYvw5dz5WLFmvZbRJNVERPSaOyn1WFFu1jsqAn7WYBFRoo4/EqfDgWtHylmDoWbUsKF46/1c7Dt4SHkWAaMgDVaVFfbr9IV7yYYSAG1VZ9lbdiGwaC0cA3qojooovGs//IUrtcVZcMjl9mqIT/b8npkfNl3H2XTt2B6JwxMwbHAcGtQLvfuEWrdohnEjr8S4kVdi1559mPXNXHz4xTfYviukD5G3AJoyaHTazrn5GUG/iehnO2bb9uz3LIAWwQ75pSuGuHH15SFzHqM4weGwUO71YtGKVTri2rS4JO6ZHQsXqj8BN5IUFHC7Hn1bgWiQjjjesguOAT1AUXKneqUww/fOl+ADWm4YAQFzC3MzntESFoHciZ4rAUzFWY6NM8XpcGDYkDj85Q834eYJ1+C8bp0REx1luqyzqlunNvqd1wPXXD0cfXt2x6EjR/DDzt2myzodBxMS2/ToM/OHNcuD2g3++KJyj0xrA/D5wXzw07nm6it0xIhzMOaqy3UdoVM/ak9ZvI6gSEMWZejK4tJy+D/TMkQ+IgQWrYO9SetelEydYZEkdnRaXxDeRwjOuYqJjsJ1o69C9qvPIP3uW9G7exfTJZ0TiwgD+52PZx66D1n//id+c+lgODTOXayChhZZH12cMrFlMB/0f127C1dCw+nTXTu2C9sXS03QsH49DBmoadi6jav0BEWWwpzMFQAW68oLfLcG9qotuuLCFh88Cv/HRRoDUW75Atn6AiOHO+WmxpbFuQCMHgb8S1EuF8aNvBIfvPoM7rhhPFo0bWy6pKDp1L4N/vbHSZj6wuO48pJ4WKG3t7Oj0+v/YMCkSa5gPeBPlkVZy8HOo69I0BEjqmHUME1nfJPew8QjCbPGlQtmeD8oAB/Uc9krLNk2fO9+CS6r0JdJmDnno2kH9AVGiPR0C76KLACdTJfyU4Mu6odpLz6Ou26aYGzjug7tW7fEw3ffgslPP4L+vXuaLufniAZF7y4L2iX3/zVYjMHBetDThlkWLh8UqzpGVNPFF/TW9Rd8wIBRk/TcUxxhKCrqbQD6Op6yCvje+xqwZcvcqfhnzYO9Ve9cIAa/rDUwQsQv3vAIQCNM13FSx7at8Z/HHsRTf70HrVs0N12ONt07d8B/HnsQj953G5o0ami6nB8xcEd8UlpqMB7LAoDY0de1ANA5Pqm5jAAAIABJREFUGA94Jhf1OQ+NGoTUiqw4BcuykODWcvh4VIxVKucknYOi7Df3g/lVnZn2lp3wfzJPZ2RYCCzfAH/hCr2hzHOLc7MK9IaGP3dy6lVMeNB0HcDxDew3jEvE288+FnorORpdPigW77z4BEZfkQAKkcuGDH4tLtlT7dlyFgBY5NKy2XionjdtEQSXui/WkmNblpa74SKRzYFnAJTpzPTPWQ7/7KU6I0OavXE7fNkF+s9utPCY3sDwN2DUdU3BNBka9hqfTYc2rfDfJx/G768be84T1iNJ3Tq18Zc/3Ih/P3w/mjYOifmYtYkxtXdKSrVu2Tx+iZDs/kEp6SzcF/bVESOCoG+v7qhdK0Z5DjH3Ux4Soeblv7MLjMm6c/2fzEdg4RrdsSGHd+6HN+szwB/QHb24KCfrU92h4S7a6XoTgPGz2ZKvvAxvPfMoenTuaLqUkHPxBb2R8dxjGHRRSLwt9K/vr/V/1XmAE3uwqE8wqjmTTu3aoGWzpqpjRJC4nE4M6KP+zG8GlL/2IpnDpicB+LSGMsOXMxuBVZu1xoYSe+8heCd/BJR7tWcz4TEAIT8mO5TEJ3kmMfNokzXEREfh4btuwZ9umRgWs6xMaVi/Hp588G5MGj/W/J2GzPcMGp126bn+5yc3uStfWtLxZi2Ca0AfLcebdU+YOFH9UlmEmjMzYysT6Z/kbdvwTf0cgQWrtUebxiV74HstH3xU69XZk1YVX9Al10RwuIodM6EtA0+ZrKFFsyZ47fG/48qhMvqvMogIE1MS8fRD92o7W/E0LNvi/57rzVhW3+GeOgA6BremXzu/R1fVESLI+vbsriPG6T/kl7NYqoOtR6B5LxYAwGb4cmfDP3uZ9mhT7HUlqHjjQ/AxI80ViOgBpKfLrZxVYNnWizA476prx3Z47fGH0K2TlmN+I0pc/7547fGHTF/96hLtKDuno5SsOrXsztBwTIA0WOGnW6f2WpaybYa8OKqhOHfKZiZUa6/AOWOGf1YxfB8WRfwIh8DCNfBlfAp49V6R/YkPC3My8kyFh6O4pNRxAJKM5ffvi9ce/zuaN4mcgaG6dWrfBv/919/RtWM7YzUwcE/cmNQqT+C2mEn5sLW6dWqjVXPZfxVuHA4HOrdXfqYwAOqoISSiHXGWPwWGset1gcLl8L6SD94fgcNIfX74ZhbCN/0bcED7hvaTyhyOwJ2mwsNRQkpKXQL921T+0LgB+NeDd6FWTLSpEiJGk0YN8dKjD6JXV+XTpE7HSTa9jCregWqRpX6abbeO7UNmvoWomi4d1H9qYA6ticrhaGV2tpdBd5iswf5hN7wvTYe9YpPJMoKK9xxExSu5CBRpnnP1K/T4nOnTNhouIqx4/bUegKG7BocNjsVj992u61zXGqF+3Tp44R9/Rp+e3UyVEBuf5KnSAFILRB1UVXNSp/ZtVEcIRWQFK3wU52V8QcB7Jmvgci+873xxfLXnWLnJUqqFAwH4CxbD+9IM8M79hquhdQ0rGjxpuIiwMnCUpxPbfI+J7CEDL8Tf77olVA81Dmt1atfCsw/dh55dzXwmZ8LjCSkpdSv7/RYYLVQWBACtmzdTHSEUad1Cw3NHrPw1WFOQ7bsHwGGjRTAjsHANvM++h8D8VWDdQziryV7/A7wvTIf/swVgn990OQDzHbNmvajxkMPw53DgXyBovzv54gt647H7bodTmitlTjZZHdu21h/OaFPhi76/st9uAax8c5SWN2mhRCs9zbFs0AuSufnvbifQbabrAAAuq4AvdzZ8r+TCXrfNdDlnZe/YD++0z+Gd/BF4z0HT5QAACPRKUV6mDBWtghObka/RndupfRv835/ukMnsGjSsXw/PPHQfmhg5FJvuiU/2VOrQSAsg5bc3NJM7KMJWy2ZNdMRIgxVEhbkZWYD+Ce+nY5fsgfetWah4YToCi9YCdmitaPGOffBN+yL09o8RlrGr7F7TZYQbCliPQPNxOE0bN8KzD/0JdevI2fW6tGreFE/+9W4TQ1vrMOhPlflGC4Dyd9CG9eupjhCK1KldS8degrojRtwht9oEkTdQ6w4Apndm/wzv3AffBwXwvvABArOXAUdKzRXj9SGwaC28b36IihenI7Bio/7zBM/ssG0FrinKzjYzcCtMxY+ZcDGIf6Mz0+lw4NH7bkOLprKQoFuvrp3xwG036Q+2+Xb3yLSzbi63AFR6w9a5kgYrfBER6tetozzniLVPPvoF0cKZr5cyYRyAY6Zr+SV79wH4ZhWj/F9T4X1rFgJL14FL1W+IZ58f9rpt8GV/jYp/ZsL3QQHsDduV554LZpo0b/q0dabrCDdsYPXqrptScUEvLUOZxSlcMcSNlKuv0BtKiIGLz7q67ATgUl1LLQ2HBgt16taujQOH1O6brqgdJStYQVack7kqLjntNmKeYrqWU7IZ9rptsNdtOz7GpWVjOLq0htW5DahdM1CdWtV6eC73gnfug71hO+yNP8Dethvwh8EwVOLXinMzjd4NGo7ikz3nM+NKnZnDBsdizIjLdUaKU7jjhvFYvmY9Vq/XeImf8buEpImPFOROOe2GTScApW9sTofD/IGNolp0bNqMLrfl9FMFinMy3nYnei4GISQ2vp8OMwM79sG/Yx8wZ/nxL8ZEwWraANS8EahxfaBuDKh2DOgXgxu5wgeUV4CPloEPHAHvPQR7z0GzlyDPXWF0A+ddposIS4x7oXH1qnmTxrjv5om64sQZOB0OPHLPHzDx3odQWqZtPEy9CrJvAfDEaesCoPSNTe6oCH9RGp5DX5RfVrAUKerf5Y/uJRubATzOdC1VUu6FXbIHKNljuhJdvocralTBlDfDd4CYIUPGpLby27hOVx4R4e933axl+4SonLatWuD266/Dk6++pS+UcUfvlJRnV2Zne0/1r5WfQSiEMCw93T7sKvMA/JnpUsRpEH5wBGhEUfabpqeahqWAbd0MxVdjfipxeAIuPL+XrjhRSfqfF25d31vrtCNBLACn7LyCxRcKg/pEtXg1PIcur1MGKSq0Mjvba9lR1wBYZLoW8Sv7GLhizsyMraYLCUcpKSkOBt+gK69Jo4b4g+daXXGiCogIf/7DDYiO0rjjhPj3p/tXFgClb2z+QAB2aN3+LKrI71ffYFXEWEobfQHMzZ98xOlyXgVgjelaxI/K2LISi3MyV5kuJFyV+GuNANBeV96dN06QeVchrF2rlpiQpHVSx9DYseNPeUCiBcCnOr20VEa5hLMjx9RvFo4u9coKlgazs9/aEwhgBID1pmsROMpMo4tnvD3XdCHhjIDTriAE2/k9uuLyQQN1xYlz5Bk7Ei2baZtfTWQ7TzmMywJwVHX6oSPKI4QizIwjR9WPUjpQ2xdy85oi1fyZmZts2z8YcrnQpP1ENLw4L+ML04WEsyEpNzRj1jNYlIhw9+9Sj48UESEtOioKN0/Qd1oSMTxIT//VnnYLwD7V4QcPH1EdIRQ5VloGfyCgOubI6e7CEGrMy39nV7SrfKhsfDdis2VzfGFORpHpQsKdz+8fi+N3wyt3SeyF6NW1s44oEQRXXOJG147tNKVx6/hFmwb/8qtaGqw9++TGmHC1c4/ylwcA7NURIn6uIDv76GFXxSgCZKilLoSVtmUPmZufJfvggoAYWnabExFuujZZR5QIEosIE1MSteXZVuBXr0WLWP2b2/ZdNWaOTcTZsVvLcycNliErs7O9hf26jAfoJdO1RDomfO11lg+aN2NqielaIsHFKRNbAhiiI2to7AB07ahtH70IkkvdF6NT+7MeGRgUBBqbkpLys4N7LbawW3Xwdj1v0kIBLc0xk/LXoDiD9HS7KDfjDgJ5oGFPZg3EzHjB16zWlQuzsw+ZLiZSuPyBUQCUn0QPANcljtARI4KMiHDdaG3PXYvt3uj4n37BAvMW1ambtv6gOkIosnGrjg/bvFlDiDiLwtyMrADRAAaWmq4lUhCwl0FXF+dl3rnw9deV37FdkzBYyzvn+T26ok/PU96FL8LAlZfEo0mjhlqy2LKu+umvLbah/HTEdZu3Hj9rTISdDVu2Kc8gUv8aFJUzPydjbUxDRxwzXjBdS9gj/pb91K84N2OW6VIizYBJk1xg6zIdWWNHDNMRIxRxuZwYNWyolixm/nmDRcTK39yOHivVtVlaBFEgEMCmbepXH21psEJKwZQp5cV5mXcCPB4guaRVdX4GHmvrrLis6MMMWb5XwLW7dBDADVTn1K1TG0PjLlIdIxQbefklsPSM1+g/ZExqq5O/sKKjvJsA2KpTl69epzpCBNm6TVtRVq5+/icHSIZehqCi3Kx3/C6rJ4BMALIEXTnfkWXHF+dmPpSdna18vknNRZfrSBmRMBgx0RqPXRFKtG7RDBf17a0jivwB69KTv7AKsrOPAupXEJatXqs6QgTZ0lVanjN/Y18DuWU9RC3InrKzKDczjWwrAcAKw+WEsv0A31XUr0ts4YypC0wXE+kI+NXMIRWGX+LWESM0uGJInJYcJnvQyX8+PnmUeJnq0EXL5aitcLNohYbnjLBm1qwX5ZicEFeY//a33ua1LgT4LgAyOfh/GECm0+XsWZSb9TzS05VfDajpEhISnACUX7dr0bQxzusmg0UjxdC4i+ByqZ9JS0Q/Nv8WABBbyhuszSXbZR5WGPH5/Vi4/Hv1QUzKX3siOBa+/rqvKDfreT87e4PxKhQfFB/iGMBMy8bAotzMtNnZb8kPN03KGna4AEBd1TmXxQ+UY3EiSN06tfVcJmScPyAlpQFwosFi2EvUpwLFi+W9NFws/X4NSsvKlecQ2zISIMwsyHtrW1Fe5q1EaE+gfwA4bLomjWwAH55orEbPzc/8znRBNY1FtpZrPfEX9dMRIzSKH3CBjhgr2lc7Fji5gkVUqCO1oEh+FoWLrwv1bCMJWNZcLUEi6ApzMncX5makewP+LicarQOma1LIBpDNhPOLcjNHSWNlDoGUdz61YqLRt2d31TFCM/eFWhosMAf6AicarMKczN0AlN/JtWjFKuw/KHd9hzrbtlFQrOX9o6JWA0veqMLcwpnv7C3MzUj3uso7gXA7gHmmawqiDQT6B8PRpSg3c1xxTqZsJjWMmfuozrjw/F5a9usIvVq3aIa2rVqoDyLqC/zsFHKeC1BXlZm2bePLufORcvUVKmNENS1YuhIHDmm56rOwYMoU9dchhRYnjoH5D4D/DBqd2oMt6zoGpwLoYri0KqJDAOczU0ZxXsaXkBEVoSM93cKSDeerjrngvB6qI4QhF/TqjpIduxSnHP8QYP34a7K+VZwIAJj5RYGOGFENM7/4RleUtiCh19z8rDWFuRnpRf26dAchAcSvARTKw/B2MeNdYkqJbmi1LMrNTCvOy/gC0lyFlPglmzoBqKM6p08PpWsNwiA9xx5Rr5SUFMePK1hWwPuJbbkYgNLbJtZv3oaVazegd/cw+1BbQxw8fASz5y/SkkW29YmWIGFOerpddLyR/gYALk6Z2NLpDwwBYxiA4QA6GqrsKIBiYv4iQI4v5uW+vQjSTIUD5W8cDocDPbt2Uh0jDDlfT/Mc/UPA1fbHBmtu/rvb3cme5WD0VZ2c/dFn6N39VtUx4hxMn/UFfH6/jqjDFS2ji3QEidCxIHvKTgDZJ/4H9+jUrrBwMZh6ksX9mGm0ynxm7ISDr27nqFgqk9bDDzN3UrsEALRv0xLRUTK9PVJ1aNMKUS4XvD61Z68zOzr+bBcfg2YRWHmD9eXc+bg1dRxaNGuiOkpUgdfnQ84nX+mK+2Lh66+rfYWLkFeUn7UeJ26wcY9MawMnK22wCDhYNCNrUbHKEKEOcQfVEV07tFcdIQxyOBzo2K411m7cojSHGZ2sn36BbDtfaeIJgUAA786Uq0Oh5sMvvtV2lycTaXmtCSEiCXVUndCpXWvVEcKwTu3aKM+wQB1/1mAV5WUVAVDb1p2Q88lX2L1vv44oUQlenw8Z02fqiquIYStPV5gQIlKw8u6nVYtmqiOEYa01PMcMbmX98msMfKA8Gdrf0MVZ6Gx4iejTgtwpB7WECSEiifJ9Ja2aS4MV6XQ8xww0+WWDBQK9rzz5hPzPCrC5ZLuuOHEah48ew5RsfQtKNmxtrzEhRCShxqoTWjSVvcGRrqWG/d8ENP1Vg1WUmzEfhJXK0wH4AwE890amjihxBm+8MwOHjhzVlEaHfP7aOZrChBARhZuqTmjUoJ7qCGFYw/panuNfr2ABANt4U0c6cHxquKZjWcQprN24BTmfartzEARMWzjz9VJtgUKIiOBOSakFQOn8hJjoKES5XCojRAioX6+ujpiGp2ywbIsywNB2hMkzr72NI0eP6YoTJ9i2jSdefhOBgL5xQLZlv6EtTAgRMaJ9daJVZ9Svq+WNVxim6XmOPmWDNT8nYx8IM3RUAAD7Dh7CC1Pe0RUnTpiW+zFWb9isLY+AhcUzsvSMiRdCRBQvBZRP/5QBozVDVJSOVUqKOmWDBQA2rGc1VPCjj778Fl/MmaczskZbs3Ez/vuOth4aAMBMWl9TQojI4bOdylewnC6H6ggRAiwiOB2Kn2vmU69gAcC83LcXQvNhvE+/NgW79spsLNVKy8rx8DMv6zoS56St3hYx2ToDhRCRI9pZoXzZQfmbrggZLtV77QinX8E6/g30tNoKfu7w0WP465MvwOfT+sZfozAz/vnSG9i6fafmXPxbjsYRQpwrm6F8s6hty3nfNYU/oLzP8J+xwSrKyfgIhGWqq/ip79dtxLMyukGZaXmz8FXhfK2ZBOx1sEs2twshzpkDlld1huZVfWGQ36+8X/eeeQULYDA/rLqKX8r77Gu8ky9nFQZb4cIleCVT/4xPJnpybv7kI9qDhRARw++IrlCd4fPJIntN4PP7wax8tbLibA0WinKz8ghYqLqSX/rPlHdQULRAd2zE+n7dRvztqZdg27b2bGb70vgx4ztoDxZCRIxoHFa+gnW0tEx1hAgBx7Q8z3T2BgsA26CHlNfyCzYzHn7uFcxfskJ3dMTZuLUE9z76NMorlP98OiUCjWDb8X18Ulp6wsSJMUaKEEKEtYLevUsBKP2EeOxYqda5gMIMHSeXEPhoZRosFOdmzAL4M9UF/ZLP58dfnvg3Fq9crTs6YmzdvhN3PvwvjUfhnFZtBj/sPRhY605MTTNdjBAizKSn2wAOqIywmXHkmBw0Eel0vB8ysK9SDRYAMNFdALRfoC6v8OLeR5/GvMXLdUeHvU3bfsDtDz2OfQcPmS7lRwy0A9Hb7iTPl+7ECX1M1yOECB8E7FOdsXe/0h5OhIA9+7SMg9pb6QarOCdzFUCvqazmdMorvLj/8efkzMIqWLl2PW598LFQ/mFxGcha5E7yvDZg1HXKD3AVQoQ/1tBgbd+1R3WEMGyHhueYqrKCBQAOn//vYOgdoHSCz+fH3558Ee/K3YVnVVD8HW5/6AkcDv3zHZ0AJkU5nGvcSal3pqSkyJQ/IcRpEZHyd8Ydu/eqjhCG7dyjvE8HE1V+BQsA5nw07QCB7lBV0NnYzHjhrWl46tUpMq/kFJgZGdNn4m9PvogKr5kN7eeoMUD/LvHFLBiUmDrEdDFCiBDFvEV1xNYfdqiOEIZtLtmuIYU3V6nBAoDCvIwPAOQqqKbScj79Cjf/5RHs3COfNE4qLSvH355+Ca9mZcNWP99Dlf420bfuJM9MGesghDgF5Q3W+i3bVEcIwzZuLVGeQXQODRYAWLbvNgBGDw1cvWEzbrzvYcyev8hkGSFh5doNuP6ev+HrwoiZGzZSxjoIIX6NN6tO2LBlm44hlMKQPfsO4OBh9XOvAwHedE4N1tz8d7cTeFKwC6qqg4eP4M+P/xtPvToFpWXlpsvRzh8IYPL7ubjlwcfww87dpssJNhnrIIT4GbatjaozSsvKtZ/VKvRZvWGTjhguK7O2nFODBQCFuVnTAUwOYkHnLOfTr/Db2/+Mb4q1D5w3Zu3GLfj9/f/AG+/MiOjBeCfHOsQle76SsQ5C1HDRZasB9Yc+L1u1VnWEMGSpnud287LPMo+dc4MFANGu8jsBrAlSQdWyd/8BPPCv5/GXJ55HyY5dpstR5sChw3ji5cm48b6/Y83GzabL0YYYl8pYByFqtqLs7DIA61XnLF+9TnWEMERT87wCAKrVYBVkZx+12R4DwPiY8JO+nbcQE+58AC++NQ0HDh02XU7QlJWXI2P6TFz7h/uR/3lBOG9krw4ngEnRDucqd2LazTLWQYgaaZnqgIXLv1cdIQw4VlqG1evVXyJkYClQzQYLAOblTf0ehBuPP2Zo8Pn8eCf/E1xzy314JfN97A+hSeZVVVpWjqm5H2Pszffi1axsHC2VYxwYaAriV0t80d/Fj77+EtP1CCF0IuXHeuzYvRdbZFxDxFmwbCX8WrbU8HIgCA0WABTlZGaD+elgPFYwlZWXI3PGhxgz6R488fJkbNr6g+mSKm3Xnn14OeM9JP3uLvzn7Xe13PUQfqgfW/Y37iTPzLikiR1NVyOE0IBsLbdLFy5cqiNGaFS8SPniJwDAgmMhcPySS1AU9e/6F/eSDV0AjAnWYwaL1+dD/ucFyP+8AH16dsPoYUMx1H0R6taubbq0n/H6fJi7YAlmfvEN5i9ZXlMvA56LkYTAZXHJaS/GOMseK8jODplL1kKI4LLLudCKJhtBWiA4nW+Lv8N1o69SGSE0sm0bcxYsVh/E2FmY9/YGAKBgPq47JaUWe2t9RcRxwXxcFVwuJ+L698Vl8QMR278PGtavZ6SO0rJyLFi6EgXFCzBnwWIcKy0zUkcEKQHzX4vysjJMFyKqxj0yrQ2crHYCIGN1UV5mL6UZQjl3kmc5gPNVZhARZrz2LFo0a6IyRmjy3bKV+OPD/9IRlV2UmzkOCOIKFnD8Do/4ZE8iM80BuFswHzvYfD4/Zs9fhNnzF8EiQo8unXBR3/PQt1d39OnZDfXr1lGSW1ZejhVrNmDZ6rVYvGI1lq1aq+macI3RFkRvu5M8N9g23TkvP0PPmrAQQh/iuWBS2mAxM74uWoDfyipWRPhy7nxdUYUn/yGoDRYAFOZk7h48Km1YwIHZANoH+/FVsJmxav1GrFr/vxl2rZo3RZcO7dCpXRu0adkcrZo3Q4umjdGwQf2zNl/HSstw8PAR7Nl3ANt378H2nbuxqeQHrN+0DT/s2g3btlX/lgSQYFm82J3kmep0Oe+dnf2W+uPThRBaEKiAgZtV53z01WxpsCJAeYUXX86ZpyWL4Cg4+c9Bb7AAYM7MjK2xY8cPswKObwC0UpGh2o7de7Fj995TXrO1LAt1ateC0+FArZjjJ7lUVFTA6/ejrKxcVqRChwXA4/f5R7qTUv8RfbDkPwUFBXJKuBBhjp1Rn8HnDQBQOqplw5ZtWLl2A3p376IyRij2VeF8PXfgM3YW5k358e4IZZsE502fts4KWFeAEXFnDti2jSNHj+HAocPYvms3tu/ajX0HD+HI0WOR2lyVEtMbAML1VsZGAP27okG75e5Ez5WmixFCVE9R9pv7mUnL3YS5n36lI0YolPfZ11pyiPAJfjKySuldGHNnvr0yYCMegPLzo4QyR4kwqjAv4/fwUy8AmQihmWdVQugJwifuJM/MgaM8nUyXI4SoBrI/0RHz2ewi7DtwUEeUUOD7dRu1Tea3wbN++mulDRYAzJ+ZuckRoEsBkrMHws8BZgwrzMn8CgCKPsz4oSg3Mw2gOADadgwqMNLhwMq45LQnElJS6pouRghRdQzHhzpyfD4/Pvj4Cx1RQoGsGVpeJgDgdfrsz3/6BeUNFnB8T1aA4AbzXB15Iig2MWFQcV7mr3YGFuVmzC/q18UN5usB7DZQWzDUIuY/V/hjVrsTU9MQ5JElQgi15uW+vRAaziUEgBmffCmnaIShzSXb8e28hbriPpvz0bQDP/2ClgYLAObnZOyLbuQcRsB7ujLFOZtv2353cU7mqtN+R3q6XZSXlRENRw8m+hcAr77ygojR5sRYh68HJ6deYLocIUTlEdH7OnKOHD2G9/I/1RElgujNd3O0Dewm0K96G20NFgAUTJlSXtivy3gGntGZK6okG67yhHn57+yqzDcX5E45WJyT8RfL5r74xfXnMDM0wLTIneTJGJJyQzPTxQghzs6CraXBAoD3Zn6KQ0fkkIhwsX7zNnxdqGknC6M8UBHI/+WXtTZYAID0dLs4N/M+IlwH4Jj2fHE6AWL+S1Fu5rVF2dlVHic/Nz9rTVFu1m+YMRrhe1PDybEOa9xJqXcmJCQoGWMihAiOOTlZSwGs0JF1tLQUk9/L1RElguClt9/Rd9wcYea8WVMP//LL+husEwpzMt8F227Z/B4Sdls2XVGYl/UvVPMOweK8zJmHXeW9AL4LkTDWITlVpgwKEdL4DV1JMz75Ehu3qj3NSVTf7PmLMH+Jlr4bAECwTvkaNNZgAUBR3tTllu0cAOB1k3XUbPQl/HTh3PyMoA0KWZmd7S3KzXresn09Ee5jHZhmyVgHIUKYKzoTjHIdUYFAAC9MnqYjSpyjCq8XL055R2fklsJ+nU55m6nRBgsA5uZPPlKUm3kzMaUA2G+6nhrER6B/FPXrPLzow4wfVATMzX93+8mxDsxUrCJDExnrIESIKsp+cz8B03XlzV+6ArO+nqMrTlTRW+/noWRHpbYQBwdhMtLTT3n+nfEG66TCvIwPHAHqH+YbpcPFdw7iiwtzM9JP98IIpqLcjPnF/TsPOjHWQeMrP6hkrIMQIcp2WK/ozHvhrWk4cOhXW26EYes3b8W03I91RnrhozdP9y+VnuNUVVvXLj1UsnrZ1La9+q4n0BAAZz5VWVRVKQEPtHWV/+6T6e/u0JpcUMAla5Yt7drzwjf8BCJgIELs9VdJ9UGU3K7nBSPa9ey3rGT1UiWrfzXN4FFp7dnBiSD8RmUOEbhtr36ruvbsv3vz6iVaLisJhdLTrbgG7UYS2+kgaq8rtsLrxaZFI7Q7AAAgAElEQVStJRh+iRtE8lkrFPh8ftz72DPYq3XqPmcV5Wdmnu7fhuwrY8Co65q6LOc/iXATQmilLYzlBgK4Z/7MzE2mCwGAgclp3S3m5whq31AVswFMJcJ9hTmZ4Tpw1Yj4ZE9zBoaCMQzAYADnaS4hQMASmzGXLMzxOss/W5idfUhzDeIcDRp9Yz3b8t4I0F0AOpqq40+3TETylZeZihc/8dwbWcj+6DOtmQ7ififuZD2lkG2wTopL9vQixnMA5JDec8FYzUT3FOdmhOSl17hEzygiPAcgnI+rP0jMTxyKqnhuZXZ2eA5c1eBEU+0hYAz0N1Rn4wVxMdnWexzlerco+03ZDxqC4pImdgTZtxDzJACNTNcTEx2F1594GF07tjNdSo02e/4i/OWJ58G6xjIc92lRbuYZ7zIP+QbrJHdiWjKIHwFwvulawsRWIjzWxlk+OTs7O2C6mDMZMGmSK2p36R8AehRAPdP1VMMaBt0dqs2sCQlJExtWsH80iDwALkd4/MzxAvgMhIzDzvI8aZrNi026foAF+04A1wEIqfl0rZo3xeSnH0GDenL/iwnbduzETX9Kx9Fjeo8yItsaWpj/9rdn/B5dxQQJxSV6RpKFx8Doa7qYELWbmJ+NauR8vmDKlLDaYzJo9G9b25brCQCpCL/X5k996HAE7pwzfVq4DlytNneyZyjAd4LpagBRpuuphn0ETPMH8FyoXF6vMdLTrbjFG64m8J9BNMh0OWcSP6AfnnzwLliW7GbRqbSsHDc/8Cg2bNmmOZk/K8rNOutVtbB8E0tJSXGU+GPGgHEfjm+WrvEIWMtMz0Y3st4Ot8bql+LHTLjYDjheIOI407VUg5cZrzrY9be5+ZPDdeBqlcUmpw22GOkAX266liCzAUy32U6flzf1e9PFRLJQ2V9VVUlXXor7b7nBdBk1hm3b+MsTz2POgsXasy3Lds+dMfWso4fCssH6qfjR11/Cln0PgJEIz7vSqof4WzCeK+rXNV/HyAWNyJ2Y6gHRkwBamC7m3NF2sP1AUV5W+A5cPZuTKw2EvyHyP/DYAD4my36kcMbUBaaLiSShtr/qXPzxhvH47Wg5/EGHJ16ejPzPC0xEf1iUmzmqMt8Y9g3WSUPGpLYKBJDGRL9HeG+YrowDALLB9ktFeVOXmy5GpYSUlLpeX637GPwXANGm66mG+cz4Y3Fe5jzThQSTO9kzFEwvAtzHdC2aMYAcR4DunjMzY6vpYsJZKO+vqioiwp9vvQGjr0gwXUpEezUrGxnTZ5qI9lsBq9/cmW+vrMw3R0yD9aP0dCtuyfpLiOlaEMYCaGa6pCA5Qox8m/n9I9EVn9S0jbcDk9O6O2w8C+KrTddSDTaAqbbt/9O8/HfCdeAqAGBgcloTB/M/AfwekfhzpPJKCfRUg4oGj8+a9WKF6WLCRhjtr6oqy7Lwj3tuxeWDYk2XEpEyps/Eq1nZRrKZ8UJxXuadlf3+iP7BmJCQ4PQ27HCZjUAiga4C0Nl0TVXC2EmET2zCTHKWzyrKzi4zXZJpcYlpw4j4BQC9TNdSDeE71iE93XIvXp8KomcBNDFdTuigdQS6vTD3bb2DeMJMuO6vqirLsvDg7b/Dby4dbLqUiJI140O8nPm+qfj9AaLu83My9lX2P4joBuuXBiandXeCr2JwApjiEXJ7e+gQYBeCrG8RwKdF+RlLEKn7dqrhJ2MdHgFQ33Q954qAtcS4e25eptazHc5VbOKE8yyyMgFcaLqWEMUAsuwK+/Z5s6bKOSo/EQn7q6rKIsL9crkwKJgZL2e8h6l6j8H5GQJuLszNfL2K/03N5R6d2pUd1iBi7gdQH4D7QtslRToEtlfAwgoGLSHbnlvUv9vKCNuortSQMamt/DalA/gdwnva/4cE667C3Lc3mC7kdOKSPBMJeAlyfFVlrGeLry2ekbXIdCGmRdL+qnNBRLhxXBJuvDZJjtQ5R77/Z+++w6Mqsz+Af8+dmTRC772IgNKJSBJAY91FBQIaC5AAuuLPsuradS2oa1vL2gtYIBOwjJIEUSyUqJBJwEhTQQSk9xIgfWbu+f0B7rosJWXu+96ZOZ/n8R+EOV+SMPfMve97Xr8fT7/+ru4Dtr/z5rjPRQ1veMh3/BiDRlzTEg7X6Q7mzkzoTIzOJtCCgGY48kikOU5916QUwD4AewHsYfAeAn4DGRuNAH5jp39D/qyZmyz+q0SMwSPSzzINvAwgSXeWOvAx4w27jXVISkuLhS/mRQCTdGcJMZUA3+vNyXpJdxDlwnh9VW1dct4Q3HvTtXA5I67HrJOS0jLc/8zLKFqldTJKJRyOft5Ppq2p6R+UBqsOBo+4tj4FKpwA4HRFcV7ONJWnTIr/dmSsA+gZEFrpDlN79hnrkHT5hB4ImB9F4A7BYMpx+ALXLvps5gHdQawWKeuraqtX96544u6/onnTiHhCWmfrN23B/c+8jK079O4HIuCh/Bz3P2r5Z4UIH30uTq8XH0d3h8FYh6WGYd5anWF2Vjh6RuQHAOJ01A8v9KvD4f9zuE72j8T1VbXVpFFDPHbHTRjQO5T36Fjvy2/y8c8330N5hd6NucxUEHNw89C8vDx/bf68NFgiLA26fMzpRsDxAo4MoA1VRxZNKx7rkJyans7AOwBcqmqGPcZOMF3inZ2pfuy0RSJ9fVVtERGuuOQi3DLhanlkeIzSsnK8Ov0D5H61UHcUACgJECUsyc5cW9sXkAZLhLWjYx1eAnCm7ix1UEKg51XMWkpKHXcbQP+CvDdYocQkHl2YnfW17iC1JuurgqZH1874+y1/wWkd2+uOYgtFq37GU6+9g+279uiOAgBgogkF2ZnT6/Ia8iYqwl44jXWAwXfkz8r6zIqXT05Nf5qBeyx4bfEflSCke7PdeiYl1pKsr7KG0+HAuFGXYsKVIxHliswbxodLSvHytPfx+YLvwGybqURub447o64vIg2WiBhhNNZhHhNuLch2rw7S61FSavrbAK4N0uuJkwsQaEJ+TmaW7iCnkpg6oRNR4FYwrkMIfzixu5bNmmDSmCswLIIGk5rM+DJvMV6d/gEOHLTR2DjCyip/bFLRp1PK6v5SQkSYo2tHXgaQrDtLHfiY8QZXmQ/Vdahl0qiMZ8F8V7CCiWrxGYxUuw6ZlfVVegzofQZuHHclenYL7+N084uW480sD9Zt3KI7yrH2OxyBgcHakCINlohUYTLWATsImJzf77S3azOkNmlUxt1g/qcVwcQplbNhXFQwa/pi3UEAyPoqGxl8Vj9cd9Uo9OjaWXeUoCpctgpvfzALP6215UxlPxiXeXPdXwbrBaXBEhEtjMY6fE9Et+ZnZ3qr+wcSR40bS0xuyPuATvtMNs8pzJ2hbZJixK6vYl4MwygG2/cA+T49Tse40Zdh8Fn9QnYSvMmM/O+XY5onFz//auNJJYRbvNnu14L7kkIIJI0Y1xUGPQkgTXeWOmAAWX6X456lnmk7T/Ybk0ePu5RNyoE8/tGOgC0Bw0wunDVjq8q6ETq/qgpALjOeL8h1F2LyZCNpxbqPwTRKd7CTad+6FS4+JwmXXXguWjZrojtOtezaux9ff5uPT76Yj117qn0+shZM9ExBduZ9wX5dabCE+IPEkRkXksEvgtFTd5Y6KCXQcyca63C0mSyCLFq2k6WHXBVDfvJ4qqwuFJnrq+ggM08PwPnc0tz3/mvhT8LwSXEuo2I+ESfqSlddTocDA/v1woWDB2HooAGIj7PXHOB9xQexMH8J5i8qxMo1v9ppV+AJMeODgv6njbXiHGBpsIQ4xn/GOhiPAtxQd57ao19BuMObnTnn919JmTAhprLY7wWon85kNVE/vh46tGmFjm1bo3WL5oiJiUZ8XCziYmPgcDhQVeVDeWUlSkvLcLi0DFt37sKW7TuxadsO+Hy1GsCsCb3kzcm83ZKXjtz1VesBfqW0jN5e+ZW79ES/acilYxr7XY6FBPRVGa4uXC4n+p3ZHYn9+2BQ/97o3L6t8seIgUAAa9ZvROHyVfAWrcTqdRtgmkHvU6w0p6pF7OiiKVN8Vry4NFhCnMDZozKaGiY/TISbATh056mDeSabtxXmzvg5adS4N8F0g+5AJ9O5Q1sk9DoTCb3PRO8eXdGkUe16XJMZ23buwrIf1+CHH1ejaNVq7Dtg6+NCGUyXe3Mzs4P1gpG9vopeauesmOXxeALV+SPJo9JbsIlvQOhhdTwrNKwfj949TkfvHqejW+eOOK1jOzRrErwnv8yMHbv3Yv2mLVi7YRNWrlmLH39Zj/KKiqDVUGxBdCPHpXnTpln2F5AGS4hTSBw9bgAF8HKIf/L3gTEfhD/rDnI8p3Vsj0vOG4KLhiYG9aJwrF82bMQXeYvx9XcF2F980LI6dVAcCGDAkk/dv9XlRWR9lbuwNi+QdFlGWzg5D0DXoCbTpGH9eLRt1QKtWzRHq+ZN0aRRQzSoH4+G9eMRHRWFqCgXoqOiAADlFRXw+wMor6jAwcMlOHi4BPsOFGPnnr3YsXsvtu3cjdKycs1/oyBhXhwdVfnnPI+nxMoy0mAJUT2UNCr9CjCeA9BBd5hw4HI5cen5QzHqTxfg9M5qv6SBQACFy1fho0+/wpIVPyqtXQ21Xo8l66veq/NgpUEjrmlpOJxfgdEnGOmE7eQZpmvE4tnvHra6kDRYQtTAv8c6MN8LQozuPKEoNiYal11wLsaOugQtmurfEfXrb5vx/uy5+Opbr23WjzDhwYJs9xPV+s2yvuqk66tqY8ilYxoHXI65AAYF83WFdnOiGznSrHws+EfSYAlRC2Ey1kEpIsIl5w3BTRlXoXFD+21gXLN+I557a5pdZvWUMRw9C3KmbTzRb5D1VdVfX1UbCWlpDaN8MTkAUqyqIRQiZFY1j/2LVQvaj19SCFFrSaljLwAZL4X4WAfLdWjbGndNysBZfez9ZWJmfJG3GK9Mex/Fhyx/gnBSRDQ7Pztz5LG/Luurare+qjZ6pqVFNfDFvA0gXVVNEXzMeLkg1307jswKVEYaLCHqKHzGOgSfQYRxoy/D9deMhsMROhsx9xcfxGMvvqV9fRYzRhTkuj8FZH1VMNZX1TZEcmrGIwx+GHLNDDV+Am7Oz3FP0VFcfliECJIwGusQFI0a1MdDt92ApAGhuVaYmeH57Cu8Ou0D+AOWPYk6lc0BE3c5iG+T9VV6JaWOuwagqQDq6c4iqoGxk9i4Kn/29G91RZAGS4ggSxw9boBh0ksMDNGdRZczunbBM/ffZunIBVWW/bQG9z/9Eg6V2OI6H94Ura+qraTLJ/RAIDALwBm6s4iT+t4RoMsXfZq5WWcIabCEsEbEjnUY0PsMPHPf7agXF6s7StBs3Lodf3v0n9i1d7/uKOFIy/qq2kpJndCoEoFpAP5nfZzQjgl49aCr4i4Vx06dijRYQlgoYfikuGhHxT2RMtbh3MQEPHrHTYhyuXRHCbq9+w/gb489h/WbdC0FCje2WF9Va0kjx2WA6HXII0O72MMm/6VgdtZs3UF+Jw2WEAoMHDmxvZP8TyCMdyMNPXsAnrr3VhiGoTuKZYoPHcb/3f84Nm/fqTtKKLPd+qraOvrIcAaAAbqzRLh5hukbv3j2B9t1B/kjabCEUCh5VPr5zHgJQC/dWYJpQO8z8MJDd4Xlnatjbd+1Gzfc9zj22fOoHfuy+fqq2uqZlhbVwB9zHxgPAIjWnSfCFBPhnvxs99tQPIKhOqTBEkKxlJQUZ1Wj9tcCeIKBZrrz1FX3Lp3w6uP3h9Waq1NZu2ETbn7oyfA5m806IbW+qi6SRozryg6aQozzdGeJEHNMw7yxcNaMrbqDnIg0WEJokpR2XROuqnoklMc61I+vh/eeewxtWjbXHUW5BflL8OCzr+qOYVOhvb6q1iZPNpJXrL+OGU8AiLx/FGqsY5PvtNNaqxORBksIzZJGZPSHwS8BGKo7S00QEZ6691acMyhBdxRtnpsyHbPmztcdw07CZn1VXaSkpcVX+WLvYvB9kMeGwVJKoOeiGhlPqzpLsK6kwRLCJhJHpg8nwisAOurOUh1Xj/gzbp04RncMrap8Pky67zGs3bBJdxS9wnR9VV2dPSqjm4PxOMBXAAjf3R/WqgJjqsn+xwtnv79Ld5iakAZLCBsJlbEObVu1wIyXn4qIRe2nsn7TFky482EE9E171yVi1lfV1eDh43uaDvMRAFdArrvV5QPwgcMRmLzok5m2OIG9puQbLYQN2X2sw3MP3oHkhH66Y9jGi+/MwEdzvtQdQ5EIXV8VBEkjMvoz8T1EuAIRc55kjZUxeJrTYT4fqo3V76TBEsLGBo/IOM808BLAvXVn+V1K0kA8ec9fdcewldKyclx9y73Yd6BYdxQryfqqIEkePaYjm47bAVwHoL7uPDaxG6BXqwK+N4o+fX+v7jDBIA2WEDZnp7EOTocDH77+LFq3CPnpEkH36bxv8NRr7+iOEXyyvsoyg0dcW9+kqlEgSgdwoe48GjCY84kok10Vbq/HE1ZzT6TBEiJE2GGsw6UXnIO/3/IXHaVtzx8I4Mob78bOPWHx4VvWVymWnDqhHxC4lo+s02qtO4/F1jHwgdMReC/UHwOejDRYQoSY5NQJ/Zj8L4HpHJV1DSK4X3oSndu3VVk2pHz8+dd4Yapbd4w6kPVV2k2ebCQuX3eOAeNKBo8G0FJ3pCDZQMDHpsEfFszK+kF3GBWkwRIiRB0d6/AygE4q6p2XPBBP3C1rr06msqoKoyfdgQMHD+mOUlOyvsqmBg8f35ONwGVMdCGAcwGExtZdRgUIi4h5XoAc8wpzphfpjqSaNFhChLCE4ZPiohzlqwF0sLrWvx6+G4P622atvW29/N5MfDD7C90xqkfWV4WUQcPGNjBiKBmMZICGAhgIoJ7uXEcVg2kxw8w32LGIo8uWhtuaqpqSbaJChD7LHyE0a9IYA/v2tLpMWPjzuYPt3mD9YX1VlqyvCiGFc2ccAvDF0f+QkpLirGjc/nQw9zbI6AugFzOfDkZnC+foHQZoI8j8BWysBMxVDoe5ctEnM3+DDQ9c1kkaLCFCmNNZMQBs/VEcF5+TBMOQQdTV0a1LR5zWsT3Wb7LbEiZZXxVu8vLy/ABWH/3voz/+v6Gjx7UOsNEJJtqaBjcD0JSApgCaghELAAQ04v88yQoAOHT010tNYB8B+5h5D8HYZzBvqWD/xnAZoaCCNFhChDAyzR4g65/0Xzgk0fIa4eSCIYPs1GAdXV8FWV8VQb6blbUDwA7dOSKZNFhChDAyjO5ga+/KN4ivh25dQuJ4RNsY2OdMTJmhOYSsrxJCK2mwhAhlzN2tLjGg1xkwFNwlCyc9TuuM+Lg4lJSVqS4t66uEsAlpsIQIYQR0t3pV6YDeZ1hcIfw4HA7069kdi5YuU1RR1lcJYTfSYAkRohImTXLx7vLOVtfp1a2r1SXCUs9up1neYDFQRuAHZH2VEPYjDZYQIcq5r6QT4LB86GD7Nq2sLhGWOra1/rQTAnZ5c7JesryQEKLGZN+1ECGK/I4mVtdo1qQx6sXFWl0mLHVQ0GABZPnPgBCidqTBEiJEEZnxVtfo0FbuXtVW+9atFMwO43jIiRxC2JI0WEKELKpvdYUWTeUGSW25XE40bmD5t8jR5+L0OKuLCCFqThosIUIUKWiw6sXK48G6iI216rSSP9SI8Vt+J1MIUXPSYAkRoswjj4cspaJBCGdxCr5+BhyWN9pCiJqTBkuIkGX9HSwVDUI4U3MH0JAGSwgbkgZLiFDFbPmYFacc8FwnTqfD8hpMHGV5ESFEjcm7pxAhigiWD5Ysr6y0ukRYKyuvsL6IgUPWFxFC1JQ0WEKELCqxuoKSBiGMqfj6MZmHLS8ihKgxabCECFEMtvzCKg1W3ZSVl1tew++okgZLCBuSBkuIkGVYfmE9eNjym2Rhi5lxqMT64wHr79kjZxAKYUPSYAkRohxsWt79bNmx0+oSYWvv/mKUV1i+hq0sLy/Pb3URIUTNSYMlRIgiBYubt+7YBdM0rS4TljZv36GijDweFMKmpMESIlRVmZutLuHz+bFzz16ry4SlTduUNFiW/wwIIWpHGiwhQtSiz2YeALDb6jq//rbF6hJhaf1G679uDP7F8iJCiFqRBkuIEEbAWqtrLPtpjdUlwlLRj6str2GApMESwqakwRIihDFg+QW2aNXPVpcIO3v3H8BmBY8Imaz//gshakcaLCFCGVl/B2PD5q3YX3zQ6jJhZemKn5TUMQNyB0sIu5IGS4gQxgHT8gssMyO/aIXVZcLK4u+XqyhjGtHlv6ooJISoOWmwhAhlhnOlijJzFy5SUSYslJSWYdHSZZbXIWCd1+OxflS8EKJWpMESIoQV5EzbCGCj1XWW//wLtu/aY3WZsLAgfwmqfD7L6zBjgeVFhBC1Jg2WEKHP8gstM+PLb/KtLhMWVN3tY1CekkJCiFqRBkuIEEeghSrqfDJ3HiqrqlSUClk//7oBK1ZbPjkDAJjZl6eikBCidqTBEiLEOQxzvoo6+4sP4rP536koFbKmeXLVFCKsKpz9/i41xYQQtSENlhAh7rtZWTugYB4WALhnfQqfX84WPp51Gzer2j0IyPorIWxPGiwhwgJ9raLKrr378enX36goFXKmzPwEzKykFhk8T0khIUStSYMlRBggwkxVtd7M8mDfgWJV5UKC94eVSkYzHLXvoKNSSUMthKg9abCECAP52ZleKHpMWFJWhjfcH6koFRIqq6rw/JTpyuoRMPMnj0d2Gwhhc9JgCREmCMhSVWtu3mI5o/Codz7MUTsjzDDd6ooJIWpLGiwhwoURcAMwVZRiZjzywhvYF+FnFP6wajVm5nyurB4Ba/NnzViqrKAQotakwRIiTOTPmrkZgLLbSvuLD+KRF16HaSrp6WxHx9/fZFb3LFIIUScO3QGEEHWXODLjwvZn9PEA6Kuy7o7de2E4DPTv2UNlWe38gQDuefJf2LBlm8qyvgBc123/ZfkhlUWFELXj1B1ACFF7g0ZlDDFgPgHmc3RleOeDbDRv0hjDLzxXVwSlmBlPv/YOlv20RmldAmYszX1vi9KiQohakwZLiBA0ePTYRNN0/APMFwCkNQsz45k33kOD+Hicm5igNYsKr057H58rOm/wD0wy+WnVRYUQtaf3nVkIUSNJI8f2BhkPAUjTneVYMdFRePbvdyCh95m6o1jmvY9yMfX9TzRUpo+8OZlXaSgshKglWYMlRAhIHJV+RvsefV8H0SsAeurOczz+QADzvitAh7at0KVDO91xgoqZ8Vrmh5j+8Wwt5Q0HJm5ZvXK7juJCiNqRBksIG0tMndCpfY/ezxAwFUAv2Pyus2ma+KagCI0a1scZXbvojhMUPr8fj774FnK/WqgrAjHjrPbd+i3d+suKnbpCCCFqxtZv1kJEqoEjJ7Z3wH8XEW4AEK07T22MHnYBbp04BlEul+4otbZrzz489Pxr+PGXdbqjAICPiV5oXNHwkblzX6nUHUYIcXLSYAlhI0PTJjb3+QN3ksm3gRCjO09ddevSEY/fdTPat26lO0qNLVq6DP94eQoOlZTqjnIM+pVhTirIycrTnUQIcWLSYAlhA0lp1zUhn+9WBt8BoL7uPMFULy4WN2dcjREXp8Ag+7/llJSW4c0ZHmR/sQDMrDvOiTCAqWaleXfh3BkyF0sIG7L/u50QYSwlLS2+qir6Zia6D0Aj3Xms1L1LJ9x1w3j07Haa7igntGjpMjz31nTs3rdfd5Rqou1g3OLNzczWnUQI8d+kwRJCg4Thk+KiHGXXA3Q/gJa686hiGAYuPX8oxl8xHG1attAd599+WLUaUz+YhRU//6I7Sm15iHBLfrZ7t+4gQogjpMESQqGeaWlRDX0xExj0CMBtdOfRxeFw4KKhici4fDg6tdP3ZfAWrcC0j2dj1ZpftWUIogME3Jef456KI48QhRAaSYMlhAIpKSnOyobtxoDoEQDhMb8gCAwi9OreFecPPht/OncwGtaPt7zm7n378dU3+Zgz/1ts3h6WUw++MR2B6ws/mRkWXWOoS0lJcfrrtanvd0U1dAS4nungesxoYJDZkIkMw0SpaaDUZKPEARQHzKqS2Gh/aZ7HU6I7u6gbabCEsNLkyUbSivWXE+MfDHTTHcfOoqOiMPisfhjYtycSep+Jdq2D8+TUNE2sWb8RRat+Rn7RCqxcvdbOi9eDpZyYH20bVfmcx+MJ6A4T7lJSUpz+pm06+P3OLgZxF5PRkwhn4siHqc6o3bXWB2ALgJ+Z6CeDeYPJtCEQZfy41DMtLD8ZhBtpsISwSOLIjAuJzGcB6qc7Syhq2bwp+vTohk7t2qBD21bo0KY1WjZvigbx9Y77+wOBAA4eLsG2nbuxadsObN6+E79t3ooVP69FSVmZ4vS2sYwN/kvBrKwfdAcJJykTJsT49ptJpmGeB8b5IBoIIEphhK0AFhLzQjjMBfmzZm5SWFtUkzRYQgTZkcaKnwJwlu4s4So2JgZxMdGIjo5GWXk5ysorUOXz6Y5lV34mej6moTE5b9q0Ct1hQhQlpWYMZOKLiHE+gCQAsbpD/cEGIlrAbC5w+MwvFn0284DuQEIaLCGCJnH0+MFkmv8AkKI7ixDHsc4wadLi2ZnazvwJNQNHTmzvgm8Mk3EdwKfrzlNNlQC+BiHzkLMi9yePp0p3oEglDZYQdZQ4Mn0QER4EcJnuLEKcAgPIgivqdq/nnVAZ9qVUQlpaw6iq6JEgSgdwAUL7OnkAgMckchdmZy6G7C5VKpR/cESQpKSlxZdXOus5HE4uKUXpyq/cdjsbxJYGDx/f03SYjwC4AvJvSYSWHQT+a35O1ie6g9jFkMvHdAkEHPeCkREOx1T9L1oFxtPtoso/lI0PashFIYylpKQ4y5u26WyYzu7E3N1kdCdCNwCtANQDEI8TTw8/QEAJM0rZwA4Cr2UYa8FYbYDWtnWVbYzUf6RJl0/ogUDgAVaXd+sAACAASURBVABjADh05xGiDubAT//nnZO5TXcQXY5+ULoXwDUAnLrzKPAbwC9FN3K+JWvyrCUNVhhJSUuLr/DFDiXC+cR8HgN9ALgsKlcFYBkYC02DF/j9cYuLPp0S1lu1hgzP6BBw8N8BXIsweiNmRhkRTBxpuEXkKSbg3kgbUDpk1Li+AaY7EbkflHYR878qzbhXwv29WxdpsELckFHj+vqZriDgfABnQ9+FvwpAIYPnM7OnMHfGz5pyBF3yqPQWJugOYr4dQLTuPEFUCWC6afofJoezCTG+ANBBdyihCfG3ARjXL8nOXKs7ipWSLstoCydeAPhK3VnsgbYD5l3enKz3dScJN9JghaCho8e19pu4kkDpDCToznMCPxNzZoAD0wpnv79Ld5jaOHtURlMDuJuYb4W9tmTXlQ/Ae4bpe3Tx7A+2//6LQ0ePa+1n+gKMPhqzCb3CdkBpSkqKs7JRu5sBegxAA915bOgbk82bwunDsW7SYIWKyZON5OXrRjFwHUAXI3RuafsAfMGMqQW57jkIgUcQg0dcW5+p6iYm436AG+rOE0QmgE8Ixv35OdPXH+83DLl0TGPT5ZjNwBDF2YSt8HLDpOsXz3Z/rztJMAwekX6WaeANyGy6U/Ex442YqIq/y1E9dScNlt0dPWoFjEcBnKE7Th39COZnow9unZmXl+fXHeZYfS5Orxcfy7cw0b0AGuvOE0QmgE8CRA9W5/HPsGF/jS6OLp4JYLT10SICgykfxEkADN1hasDPjNfLyvFAqO4sHjRsbAMj2vgXgImQ611NbCQYN+TnTP9Kd5BQJj9wNtUzLS2qQVX01SDjwRAacFddGwB+uVFl4zfnzn2lUneYnmlpUQ19MROY8SgIrXTnCbJ5MOke7+zMZTX5Q0cep3R4DuBbIe8TdXGYCJPys90fJI0clwyiqQDO1B2qhtYD5g3enBnzdQepicTR4waQSR8C6Ko7S4hiMJ6JPrjlITt+IA4F8sZpQ8mp4y4H6F8MtNedxWLrDcati3Pdn+sonjBpkit6d/lEJjwMRlsdGSw0jwzzgfxZM5bW5UUSR4wbQQa9B6BJkHJFkp+NgHHl4k+n//T7LyRMmuSK3lV2BxM9itDaMBFSA0qTRo7LANGbCK+1k7osCQRw9ZJP3b/pDhJqpMGykeTU8aeZMF8m4BLdWRSbw3D8tSBn2kYl1f7z2PVJhN+n23zDpAeDeRxKYuqEToTAhziyS1VUzxS4Km73ejzlx/ufyaPSe5kmTSXiRNXB6oSxk0B/zc/N/Fh3lOMZNGxsA0e0MYWBq3RnCTP7yODx+bOyPtMdJJRIg2UDSWlpseSLvZeZ7w3PCcLVUkagZxtWNnzKwseGlDgy/TIy8I8w3Cm3hBn/KMh1f2rFi6ekpDgrGnf4BzHfA3nfOJkSMN3gzc2cecrfOXmykbx8/V8YeA5AfeujBdUc0zBvLJw1Y6vuIL87OtdqFoAuurOEKWaifxb07fIAJk82dYcJBfJGqdnRN4UPAXTXncUWCCthOK7yfjJtTTBfNnFkxoVE/AyAAcF8Xe0IPwF41Jvt/hgKdmgmjxh/DhvmawB6WV0rBNXqTuyRuUz8GoCR1sSyCh0EzEe8/bq+ovuCmzQq/Vww5YbZrl+7mhXdyDFWpsCfmjRYGh1dJ/AGgDjdWWymnJlvLcjNeruuLzRoVMYQA+YTYDonGMFs5DcCnm7rqnhH9byihEmTXFG7y24C6HGE3p0XK2wgg2+t6+OTpFHpaWC8BqB5kHKp8p1h8vWLZ2f9oqN48qiMkcz8PmS9lUoLzEpzVOHcGYd0B7EzabA0kHUC1fZuVSD2r7U5xiF5VEYSMx4H+AIrgmm0mYAnooq3vKt7Z8/gEVe3MQ3X0wDSdebQyMeMN4I5xmDIpWMaB1yOpwFMCsbrKVROoH8edJU/+ZPHU6WqaGJq+gQCpiKMjq4KFQQUgXBJfrZ7t+4sdiUNlmLJo9J7MSMb4be42hqEn4iNkScajHmspJFje4OMhwCkWZxMtT3E/HxUY+dLdrs1n5Q69gIQPRyGdwlPxMdEWQbTE9X9uaypxNSMYQR+A0BHK17fMoSVROZf6rp7tTqSR467l4meglzHdNoAk//knZ21TncQO5IfTIUSR6YPMghzGGimO0uI2cUGX1IwK+uHE/2GxFHpZ9CRYaxXILx+rvcR87McVfnyiXak2UXi6PGDyTTvA3Apwut78LsqAB/C5MdUXFAShk+KczkrHibmuxA6JzcACgaUJqWOewygh6x4bVEzBGzxsXPw0tz3tujOYjfh+CZoS0mjMi4D84eQ9Va1VUIwLj92svDREQL3A7gOoXUROpXDTPS6z1n+VJHHc1B3mJo4unHjTgBjEB7fk1JmvEMB+qd3TuY21cWTR2UkMXgqGD1V166jDcx0Q0Fu5rxgvmhi6rgbCfR6MF9T1BX9SsRD5HHhf5MGS4Hk1PR0Bt4B4NKdJcRVMVNGQW7mhwNHTmzvJP+DAK5FeK2/KGWiV51V/mcWfTbzgO4wdTFo9Nh2jgCNBdG1DHTTnaemCChisDtARtaS7Mx9OrOE+oDSANHfgvE1TEodlwrQxwiPxj3cLIl2VVwgZxj+hzRYFkselX4rM16EfK2DxWTQl8R8XpjNDKsCMM1p8OTvZmXt0B0m2Aaljk8gNjOIcDWAFrrznMQvBPoAILdV66vqYtDlY043Ao4pAFJ0Z6kRxk6A7/XmZmXW9iUGj8g4zzR4LkKrwYw08w65Ki5VudHBzuSib6GkkRljQOxGaB3wKtTyAfggEMAjkXAURc+0tKh4f/S5hknng3A+gATovRtRAvB3YCwAG/NremajJpScmn59qA4o9bPzppqu1xmUOj7BgLkQoff3BQC4nE60adkc8fXqIS42GvH14hAXEwOn04nSsjKUV1SivKISpWXl2LV3H4oPHdYduS7c3hz3eCiYy2d30mBZ5Ohgy88AROnOImzJBPAJTH4gknfgJKSlNXRVxZxDRBcw8Xlk/YR9P0DfAPiGDVrgaxa9pGjKFJ/FNS0xeMTVbUyH81UwjdKdpWZqNqA0eVR6C2YsB9BaQbg6a9SgPvr36oFe3bqiY7vW6NCmNVq3aAaHo/qfIw6VlGLL9h3YuHUHNmzeih9Wrcavv22CySHTszzgzXE/pTuEbtJgWSApNeNsgOcDiNedRdgOA/jMQfzgouysFbrD2MnRiebWHr3CWOPNdZ9haQ3Fjg4ofRX2fvT6PwhYxA7H9Sc9teHIcUJfMHCRwmg1YhChf68zMGRgfyT0PgNdOraHQcG/tB4qKcWyH9dg6cofsTB/KQ4ctPWMT7/BfP7i3KzvdAfRSRqsIBs8Ylx306B8AE10ZxG2M8+EcV9hzvQi3UHsSBqs2vvDgNLrEUrv64wKInrmRANKk1PTH2TgcR3RTqVj29a4cEgihp03GG1aqu1tTdNE0arVmJu3CHnepaiotOWSp61VAX//ok/f36s7iC6h8w8xBKRMmBBTWez3AtRPdxZhI8yLYdDfvdnub3RHsTNpsOouMXVcCsGYAvDpurPUCGElmK735mQu+f2XjpwviPmw2Y7BQf17Y/zlI9Cvpz2Ojz1cUopP5s7DR3O+suHaLZ7rzcm6FBG6HksarCBKSk1/G0fmMQkBZiogCjzozZkxX3eWUCANVnCE8IBSE8Db0a6KOwOIj/X7/cvAaKs7FAAQEZIT+mLilak48/QuuuMcV3lFJT6dl4eZOXOxe99+3XH+jZjvy8/NekZ3Dh2kwQqSozsGZ+jOUVP1YnyIcfkRG+UHM1BR5US5z4myShnZVQc/gvCYN9v9MSL0k1ttSIMVXEkjMvrD4LcBDNCdpYZ+Y8ZuIgzSHQQAepzWCXfdMMG2jdWxKiqrMP3j2ZiZ8zl8fq3Hlf7OT4aZrOL4JLuRBisIzh6V0c3B/D1svIW4WYNyDOiyA93aHECn5gfRrtkhtG5cAodx/Ot/wCRs218fW/Y0wOa9DbBmW1Ms29AK+0vCafRU0K0G89Pe/l2zqrM7Svw3abCCLyUlxVnVsN2dITigVLv4uDj85ZpRuOKSi2AYoTdpZ+uOXXh+aiYKl63SHQUEFLV1VQzyeDwB3VlUkgarjtLS0hzbfDGFfGSej62c2W4vLur3G84+fQc6Nq/7aSvMwMbdjVC4tg2+XN4Zv+6QdfxHbSLgybauinci7Q0kmKTBsk7SiHFd2UFTiHGe7iyhYFD/3njw1klo2qih7ih19tmC7/DC1EyUV1TqDUK4xZvtfk1vCLWkwaqjpNRxtwD0iu4cv4uPqcLIQb/ikgHrg9JUncz6nY3w+Q9d8enSrpH6SHErwM81qmz85ty5r2h+9wp90mBZ7vcBpc8CaKA7jB0ZhoGJaSMx8apUS0Yt6LJ52w48+NyrWLdR63nMh5wG9wjHkypOJHx+gjQYNOKalobhXAOgke4sjepVYHTiWlw5eDXiY9Ru2S2tcCGnsBtmftcTB8vC/ykEAXvB/BxHVb7s9XjKdecJF9JgqTF09LjWfpNeBTBadxY7ad60MR674yb0PdMeuwODrbKqCi9MdePTeVo3M7u9Oe4MnQFUkgarDhJTx7kJNE5nBqdhInXQWky6eDniovUOpC6pcOHtr/thVmF3mGZY/mjtJ9ArgcrAC4VzZ9h6yl8okgZLrcSRGVcR8UsAWurOolundm3wr4fvRsvmTXVHsdxHc77ES+/OBOuZCs+GSRcsnp25UEdx1UJpC6+tHJk3Q89DY5Par/MuPDN+IYYN2ACXU/+a6iinicTu2zG4x1b8ur0J9hyK0x0pWEqY6F8xcFz5Xc70L7atWyWPAy3QvlvfBjBwh8Vl9m79ZWVErQM5ka2/rPipa48BbwfATXBkp2FYfio6lZ7duuLlR+9F08baH0Qo0bNbV7Rq1hT5RSt0NFnEhN5b16ycqrqwDtJg1Q6179EnGyAtZ2MZBuO6C1bivsu9aBJfoSPCSTWtX45LEtbD53fgx80hdXrHscqY8QazP60wd0buxjXL7ffFDiPSYKm3cc3yiq1rVs7p0K3/QiIeDCD8b+H8waD+vfHcg3civl7YfBislm5dOqJb5474pqAIAVP5h/PWHbv3XbLll5W/qi6sWujtPbWBpFEZl+qa1t60fjlevPZrTDh/JQyy74glh8G48c8/4NmMBWgYF3I3fHwAphim7/SCXPdthbPf36U7kBBWyp89/Vt2VfRjomcARMRO2J7duuLJe25FbEz4rxs9niED++Pxu26u0SHUwRIAPaS8qAbSYNWGad6no2ybJiV4bdKXGNAldK73id234fUbvkTLRqW6o1SHCcBDMM7w5rhvWDz7g+26AwmhitfjKS/IzryP4DiLgLA+L7NLh3Z4/qE7I7a5+t3Qswfgrknq15wTceLgERlhPzJEGqwaSh6Vfj6IBquu26PtPrx141y0a2q3s6ZOrWPzg5hy41x0bXVAd5QTMQF4AkRneHPcV+bnTF+vO5AQuuTnTFseVbwlEeDbAZTpzhNsrVs0w4uP3I0G8fV0R7GFkRefh79co35DqWng78qLKiYNVg0x0wOqa57eej9evO5rNK4XukuAmtYvx4vXfW35bK5amAeTzvLmuK9ckp25VncYIewgLy/P783Jeolg9AGwQHeeYHG5nHjy3lvRrElj3VFs5dorU5GSNFBxVb4gcfR45TcrVJIGqwYGj0g/C+ALVNZs2+Qwnpu4APExekcwBEOjepV4fuJ8NG9oiw/F88gwz/bmuC/yzs5cpjuMEHaUnzN9vTfHfSGYxwOwzwnCtXTbxLHo3qWT7hi29MDN16FNS8Wbkkzzb2oLqiUNVg2YhAkq6zWMq8QL185H0/jwmWXZqlEpnp8wX+fMrnzDpPO9Oe6LIvHwUSFqgb25WZl+l6MnA5/oDlNb5yUPxOhhSj8fh5T4enH4x103w+VyKqtJwPCzR2WE7c5VabCqqWdaWhQRrlJVjwi4/3Iv2jYJvTVXp9KlZTHuG+1VWpOBKjaMkd4c9+BIGXInRDAt9UzbWZDjvoIZI0DYpjtPTbRo2gT333yd7hi216NrZ9ww5gqVJaMMNq9UWVAlabCqqUFV7KUMNFNV75ohP2HIGVrPjbLU+b03YfhAdWNQCIiCGZDp60LUUUGu+9NodvQCMAWAfWfF/MHt141FfFxkzbqqrauG/wldO3VQVo9A6cqKKSYNVnUZprIfgq6tD2DSn5arKqfN7ZctVXuHjoyIOQNLCCvl5Uwr9ua4bzCYzwXwi+48J3N2v14aFnCHLofDgTsnZYDUHXadNHjEuLA8AFIarGpISruuCZguVVGLCPjbiCVwGvqPvrFatCuAvw1XtwyKmC9PGD5JPsYKESSLc7O+g6uiP4EexZEBvbbicjlxx/Xyuaqm+p7RDcNS1G3wM4nGKCumkDRY1cD+ymEAolTUGjZgPfp23K2ilC0kdt+GoWcqexTawOWoOFdVMSEigdfjKc/PyZzsIB4I4Hvdef7oiksuQoc2rXTHCEk3pl+JKJdLTTFCWD4mlAarGohJycTZKGcAN1wceRMDbh5WBIehaimH2jEbQkSKRdlZK6KLtyQdHVCq/egGl8uJa0b8WXeMkNW0cSNcduE5qsp1Trp8Qg9VxVSRBqt6zldR5LKz1qFp/fAZyVBd7ZoexgW9NyqpRUDYH88ghC6/Dyh1OAJ9AMzTmWX4BefKQNE6Sh89HC6nmrENHPCH3XuzNFinMGR4RgcAna2u4zRMXDP0Z6vL2FbG+atUHV7dL2H4Ncp2gwoRiRZ9MnODN8d98dEBpftU13c4HBiTeonqsmGnZbMmuPjcZCW1CGqeFKkkDdYpmIap5JHSOT23oHXjEhWlbKlT84MY2HWHilKGy+lUdt9biAj2+4DSXgDcKgsPPqsf2rRsrrJk2LrikgtVlTofkyeHVU8SVn8ZK7BBKSrqDBsg5wv/uf8GJXVUrakTQhwZUOrNcWcwYwQYSg5UHZYyREWZiNC9Syec1rG9ilJNh6xY11tFIVWkwToV5j5Wl2hcrwIDT1dy98bWzum5WdGZixxW/4iFCAXtoyo+Z+JKq+s0iK+H5IS+VpeJKH9S9JjQb5KS9c6qSIN1cgTQ6VYXSem9KSLmXp1KtCuA5O5bVZQKu90qQtjd1srYPgRqaHWdC4cmKj1PLxL86ZxkGIb17QIZPNTyIgpJg3USA0dObAegnuV1TttpdYmQcZaadVgtU1InNFJRSAhxBDvMM1XUOU+mtgdd86aN0avbadYXMukM64uoIw3WSTgQsHx8v0GMvp13WV0mZCR0VdNsVsLspqSQEAIAQAzL30+jXC706t7V6jIRKaGPgv6YcFrCpEmKpptaTxqskzAAyy/CXVsfQMM4y5clhIyWDUvVnE/IpjwmFEIpw/IGq3eP0xEdpeTQjYiT0EvJDUiXc19JJxWFVJAG6ySYrG+wTmt1wOoSIadLq2LLazBZv7ZOCPEfDLa8wUroHVZPmGylV4+uSppXw3SGzcHP0mCdBMNsanWNDs0OWV0i5Kj4mhBDRjwLoQ4RYPmHmn5nyo1pq0S5XDjjdMtnbgNm+DxdkAbrJAgUb3WNDs2lwTpWexVNp4H61hcRQgDAkOEZ7QHEWV2nU/s2VpeIaJ3aWf/1ZVDYrI+VBuukyPKLcPOGZVaXCDmtGik4J5bRwPoiQggA8DvMLlbXqB9fD40ayOcmK3Vo09r6IgbCZpeCNFgnxZb/a60XrWKwZmiJVfI1sb55FkIcYZBh+fwrJRf/CNehbSvLaxBT2JwVKw3WyVl+EY6LkgbrWPXUTHOXBksIRUyYli+36Kjg4h/p1DSxLA1WhLB8yGhstN/qEiFHUdNp+Ru+EOJ31t8xbtxQnvpbrXlTJXuDLN9cpoo0WCdn+ZXeH5BvwbHUfE24SkERIQQAUtBg1YuLtbpExIuOikJMtOWjGqLCZdioXN1PgoESq2uUVcqZWccqq1Lxb4sUTDMVQgAATLb8jnFsTIzVJQSA+HqWP9hBzE5/WHwzpcE6CQOw/CJcVhkWjXpQlVZY/zVhBd9bIcRRCsaixMWGxTXZ9lxOh+U1fA5/WIzjlwbrJEzA8oFMh8uirS4Rcg6XW/81UdE8CyGOMmH58zs5IkcNl9P6py7sNMLizoM0WCdBIMsfEW7ZJ5vZjrV5r4LFqiSPCIVQxkC51SUqq2RZpQo+v/Ubs5xwhMU3Uxqsk2LLL8JKmokQs0XB14QVfG+FEEeZCpZblFdYXUIA8PkDltcwKjks5hdJg3UyhM1Wl9i0x/L5eyFn8x4FTSdb/70VQhxlWP80QBosNQ6XWH/SRkUrZ1h8M6XBOgkC1lpd4+ctzWAyWV0mZPgCBtZub2J9IeI11hcRQgAATOvXs5aVW/4UMuJVVlWpeBRbVTRlitzBCnccoF+srnGwLBrrdyoZ3hYSVm1qjvIq6xdROgzT8uZZCHEEG6bld7D2H1RwSHyE27PvgIoy+1QUUUEarJMoreC1ANjqOkXr5YiH3/2wQcnXorK14dukopAQAkDA+jVYm7fttLpExNu8fYf1RQh7rC+ihjRYJ7HyK3cpAVutrrP4l7ZWlwgZ+WvaWV+EsM7j8Vi/UlMIAQAgBx20uoaSi3+E26SiiWXstb6IGtJgnQIDlj8mXLGhJXYVWz8d1+5+29VIzfortv57KoT4D4effrO6xuGSUhQfks3BVtq8zfomlhnrLS+iiDRYp8ReqyuYTPhyeWery9jeF8u6qCnE1n9PhRD/sejTzC0ALN9+9tuWbVaXiGgbt263vIZB4fMBWBqsU2BggYo6nxd1hWlG7m5Cn9+BL5erabDYoeZ7KoT4N2ZgndVFlv8UNtdm26ny+bD61w2W12GyfnOZKtJgnULjysZewPopxFv31cfCHztaXca2Pv/hNOw9ZPlpGgCwv6BP1+UqCgkh/sMALB+NUvTjz1aXiFgrV69Flc/66Qmm4ZcGK1LMnftKJQAlj5SmLewdkTOxTJPw/ndnKqnFwEJMnmwqKSaE+DdWsPZx1Zpf5cgci/ywarWKMlWx+7Zbvl5PFWmwqoFJzSOl33Y1wrc/dVBRylY+KzoNWxWdyUiEhUoKCSGOYf2jH5/Pj1VrfrW6TEQq+lFBg8XYkJeXZ/1hh4pIg1UdJuapKvXK5wlKBm3axaHyaLz1VX9l9YwAK/teCiH+gKHkFkie93sVZSLK7n378dMvli+hAwhh9YxXGqxqKMh1F6o4NgcAdhXXw7SFfVSUsoW3vuyH4tIYJbUIKFo8Oytsnu8LEUraRZevBFBsdZ15iwrg84XNTRBb+PKbfJhs+cxtAPhORRFVpMGqJhM8U1WtjxadgTXbmqoqp82y31ri06WnK6vHYLeyYkKI/+LxeAJE9K3VdQ6VlGJxkexjCaYvv8lXUsc0Kax2eEuDVW3O6VBwbA5w5MDjR94fipIKl4pyWhSXxuCxj4aoXNTv97ucH6oqJoT4X8ymkgvo3IWLVJSJCGvWb8SGzZYfaAIAewpnZ65SUUgVabCqqSBn2kYCFquqt21/fTwzK0lVOaVMJjzmGYw9B+PUFWX6cqlnmhxWJoRGpmko2WSy+Pvl2Lpjl4pSYe/jz75SVIkWQtFNDFWkwaoZpY+YFv7YEe/M66uypBKvzU3AkrVtlNZkxd87IcT/OnqHwvLOxzRNzMz93OoyYW/Xnn346ls1B18wcdjt8JYGqwbIdL0PYL/Kmu8t6IPsgu4qS1pqxjc98eGiMxRXpe2NqxrmKC4qhPhfDNA3Kgp9tuA77Nl3QEWpsDX9k9nwBwJKapkIr/VXgDRYNbJ49ruHGfyy6rr/+nQgvlJ0jIyVcpZ0w5tfDVBel5mfOzowVgihGYPnqqjj8/nlLlYd7Nl3AJ8tULapb/2S7EwlO/VVkgarhsgV/QoApUe2m0x43DMYM7/rqbJsUM34pieeyxkENTt9/8u+mKiKqcqrCiGOiyvNWQDKVNSaNXc+Nm/boaJU2Hnd/aGycRcEylJSSDFpsGrI63lnPxO9rrouM/D63AF448sBIXWcTsAkPJ87CG98qf7OFQAw8wt5Hk+JluJCiP9ROHfGIQBKHtn7/H68MFWWX9bUip9/Ubb2CgD8BGVjkFSSBqsWOOD7FxQcAH08M77pidvevRD7Dis5GLlOdh+Mw61TL0Z2YTdNCehgDDmVN8NCiFMgdTPplqz4EfMXF6oqF/ICgQCen5oJVvW4gXlxOD4eBKTBqpXC2e/vAvOruuovW98K1756Kb5f11pXhFNatLodJr5yGVZsaqEtA7P5z7ycaZZPjhZC1Ew7Z+XXAJQ9u3vp3ZkoKVXyVDLkzcj5HOs2blFY0QjbW4zSYNWSwVGPA1Ayfe149h2Oxe3vXoh7Ms/DroP1dMX4H3sOxuFxz2Dc5z4PB8uiNSahX2MaO1/QGEAIcQIejyfAUPdYaO/+A3j0xTfV3ZUJUavXbcA7H2SrLFkVMPCxyoIqSYNVS4tnv3sYhDt058hf0w7jXxqOGd/21HpIdEmFC+8t6IMx/xqJL5fp3/Foknlz3rRpFbpzCCGOj9icrrLe4u+X4+PPv1ZZMqQcLinF3//5Knx+pec45i7JztynsqBK0mDVgTfb7QFY1ZjbEyqpcOGNLwbgin+OxrQFfXC4PEpZ7eLSaEz9uh+u+OfleGdeX61N3n/QR4XZWfJOKoSNeXNnrALwpcqar7z3Pn5au05lyZDAzHjytbexc89e1YVfVFtQLTtcDUObiZtBWAVCjO4oB8ui8fa8vsjM64Wzuu7AsAEbMPTMLXAaZlDrmCbhhw2tMHdZF3zzYwdU+Gz1Y3QYfv13FoUQp2YwP2ES/UlVPX8ggAeffRVvPf0wWjRtoqqs7b39wSx8U1CktCYBX+fnZqk5RVqT0Nnvb2PJI8fdy0RP685xPI3qVSDhtJ1I6LITCV13om2T2o3w2rynAYo2eG5hOgAAIABJREFUtELR+lb4YX0rHCrXub7qxJhwY0G2+03dOUTNJV2W0RZOtnZdI2ONN9et+igBcRJJqenfAhiqsmbn9m3xxpMPokG8fdav6pL95QI8++Y09YUJKd5st5Kp/rrY6tZDqMrv3/XZpGXrU0D4s+4sxyoujcH8lZ0wf2UnAEB8jA8dmh1Eu2aH0K7pYcRF+xEX5UP9uCowAyXlUSirdKGsyokt+xpgy94G2LynAcoqXXr/ItVCHxVkZ0pzJUQoYTwBwhcqS/62ZRvueOxZvPLY/YiNseeHRRW+LSzC81MydZT2hntzBcgdrKAZmjaxud/vXwZGW91ZItT6KldFQpHHc1B3EFE7cgcrciWlpi8FcJbqumf37YWn7rsVsTHaV3go921hER56/jVl09r/C/Ewb3aW0qZaB1nkHiTfed7bQwFjDAANP60Rr9KEcZU0V0KEKn5CR9UlK37ELQ89jeJDSk8/027213l44J+v6GmugKWR0FwB0mAFVf7s6d8yYbLuHBGHcGdhznS1KzSFEEHjzcnKAbBAR+3V6zbgL/c8iq07dukor1zWrDl45o33YJrB3fxUTQzC3ToK6yANVpAVZLufBPCu7hyRgsGve7Pdr+nOIYSoGybcAqBKR+3tu3bjxgf+gR9WrdZRXonyiko8/vIUvO7+SNvAVSaaFglrr34nDVbwcTtXxSQQKx2HG4mY8UFBv65/1Z1DCFF3Bdnu1WBoO31hX/FB/PWRp/G6+yNdd3css2nbDky67zHMXbhIZ4wDBvg+nQFUkwbLAh6PJwBn5VgCtP40h7kFjasaTcDkyeH1TihEBCstxz8AbNZVn5mRNWsObn/0Wezdf0BXjKBhZsz+Og8T73wI6zepPF/wOFkID+Rnu3drDaGYNFgW8Xo85ZWuissYWKE7Sxj63jBdqXPnvlKpO4gQInhWfuUuBdPtunN8v/InXHXzPXjng2zVR8cEzebtO/G3R5/F06+/i4pKLU9e/42AovbOiqlaQ2ggDZaFijyegy6Dh0mTFVSFAaI/L579bmRt+xEiQnhzM7OJaLbuHOUVlXjnw2xcd/cjWLnmV91xqq28ogKvTf8A4269H0tW/Kg7DgD4AjBu8Hg8Ad1BVJMGy2LfzcraEeOqGEKAnI1XZzTfMF0XhfPhoEIIgJ2uiQA26c4BAOs2bsH/3f84bpv8jK3PMSyvqMBHc77ElTfdgxk5n8MfsEc/Q8D9kbrLWwaNKjJs2F+ji6OL3QDSdGcJRcSYUdkydmLRlCk+3VmENWTQqPijQaMyhhjMC2GzE0cG9u2J8ZePwIDe9vgxOni4BB9//jU8c77CoZJS3XGONceb4x4BQM+2Rc2kwVIoLS3NsdUX8zqASbqzhBIGni/Icd+NCP1HGimkwRLHSkpNvx/Ak7pzHE+r5s1w4dBEjLwoBW1btVBa2zRNFK1ajbl5i5DnXap9jdUJbK0K+PsXffr+Xt1BdJEGS4OkkeMyQPQGgDjdWWyunJlvLcjNelt3EGE9abDE/5g82Uhatv4zO57z+jsiQt8zu2HwWf2R0PtMdOvcAYYR/NU3xYcO44cfV+P7lT8hz/u93afP+8Cc4s3NytcdRCdpsDRJTp3Qj2F+BPDpurPYE62Cw7jS+8m0NbqTCDWkwRLHE2rnvNaPr4f+PXugV/eu6NCmFTq2a4M2LZvD5az+k87iQ4exaet2bNq2Axs2b8MPP/6M9Zu2ahsQWmNE93izM5/VHUM3abA0Gjzi2vqm4XsTwBjdWWzGXVqGG1d+5bbdggJhHWmwxIkkjcjoD4PzADTQnaU2HA4HWrdohiYNG6Bhg/qIcrkQX+/IAwyfz4eKyiocLi1F8aHD2LlnHw7bby1VTbzrzXH/BbKkw16LByPN0VEDY5NHjpvHRM8BaKI7k2a7mOm2gtzMD3UHEULYh3d25rLE1HEjiWkuCDG689RUIBDA1h27IuG8wznRxVtugDRXAGRMgy3k52a95/AFujLjZQCROJncBOAOEPWU5koIcTwFOVl5ZNDVAOwxf0Acq7C0DFfn5eWF5mRWC0iDZROLPpt5oCDXfZsJ42wAS3XnUegHZiR7c9wZMt9KCHEy+dmZuWC6WXcOcQzCT3BFXSLLOv6bNFg2U5gzvaidqyKJwTcRoPfwKGutJ+Zrvf1OG1iQ6y7UHUYIERq8uZlvMXiy7hzi3zabZP7Z63lnv+4gdiMNlg15PJ5AQU7WG5UtYk8D83gAv+jOFETrCbghunhLj/zcrPfksGYhRE0V5GQ9CvDtkLU+uq0nGOcXzpph7eaUECUNlo0VTZni8+ZmZbZzVfQE01gAtjhYqpZ+IPAV3n6ndcvPcU+R5/RCiLrw5mS9BOYJAOS9RI+lTpczKT9n+nrdQexKxjSEmEGp4xOIzQwiXA1A7fjgmtsP4GOTyF2YnblIdxhhbzKmQdRG4sj04UT4EECs7iyRg+YbpnPU0Z3w4gSkwQpRPdPSohr4oi8BIQNMlwCI1p3pqHICZsNgd9T+rV/KnSpRXdJgidoaPHpsomkacwA01Z0l3Mm5sNUnDVYYSEpLizX9sQkO0xzMRBcCOAdAlKLyAQKWm0TzYGJeTGNjUd60aRWKaoswIg2WqIvkUem9mGmWnI5hGZOBJwty3A9D1r5VizRYYSghLa2hqyrmHBAPIBjdAe4OoBuA+Dq+9CEAa4/8R2sM5iJXVMW3eR5PSZ1Di4gnDZaoqyOnY/jfAvga3VnCCQF7TVBGQU7mXN1ZQok0WBFk0Oix7RxsdDNNam4QN2TmBkRGvAmOJ6A+AIDoELNZYoBKABw2wcUO09hjOM01383K2qH3byDCmTRYIliSRo7LANEbAOJ0Zwl5xN/CZ4zxzsncpjtKqJEGSwhhC9JgiWAaMmpc3wDThwC6684SokwGnmzvqpjs8Xhken4tyJgGIYQQYWdRdtYKw3QNBPFbiMwjyOpiPWBeXJDjfkiaq9qTBksIIURYWjz73cPe7Kz/Y4MHAliiO08I8DHRM9GNHL28OTPm6w4T6qTBEkIIEdYKZmX94O13WtLRkzHkzNPjWwCHo09BduZ9shM8OJy6AwghhBCWmzzZ9AKZA9MmfOXw+Z8l0FjIOmQcOfOW/5afk/WJ7izhRu5gCSGEiBhLPdN2FuRkpROhDwA3IveonU0A386uiu7SXFkj4rt3IYR+w4b9NfpA1MGhRPy1lXUY2GLAOC+/X+ff5KBxAQBDLh/Txe933EaEG2CfEzGstIGAZypbxL4n09itJQ2WEEKpwSOure93VCUaTGcxo8/ROwndoHbJQimAH5mxkohXGiYVuA5tWS5HO0Wu5NFjOpqmcQ+BJiIszzXk5Qw8VdCv68fy4UINabCEEJZKSZ3QqIrNCxmcAuLBAPUG4NCd6zhKASxlYBHA830t4hbLJ/zIk5SWFgt/zGVgZAAYBnv+rFbXfgAfm0TuwuzMRbrDRBppsIQQQZc0cmxvkHEZjlygkhCaG2oOAZhHhC98TsenSz3TduoOJNQaNHpsO8Okyxk0kYC+uvNUUyWAr0HIrGoemyMfEvSRBksIERSDRo4900GOKxl8JYBwm5ZugtkLgsfvcn4ozVbkGZQ6PsHBgQuZcD5AgwHU053pD34BYyEMLKhyVnxV5PEc1B1ISIMlhKiDhLS0htFVsWOZzOsB6qc7jyJ+AHOZMbV9VMXnMuk68vRMS4tqVBU9KEA4n0DnATgbatdt/UbANwAWsJ8WyDmB9iQNlhCixpJHjx0I07iJgSsRyQfqEraB+V3D9L+5ePYH23XHEfoMHnF1mwBFnWkQdzGJuhBzTwBnAuiE2o1EqgKwFcDPTPSTwbwhQPQzKgIrC+fOOBTE6MIi0mAJIapn8mQjcdn6S4lwK4ALdcexmSoAuWSYz+bPmrFUdxhhHykpKc7yBq2bOjmqGROamsRRYDOOHPTvkRAmuJhMgw1H4KBpuvbEuEr35nk8JTpzi7qTBksIcVJpaWmOLf7YcQbzA3xknII4Kf4KjEe9uVn5upMIIfSRBksIcXyTJxtJK9ZfDsbjALrrjhOC5pFhPiB3tISITNJgCSH+R3Lq+IsZ/BzAvXVnCXEMIJtg3JOfM3297jBCCHWkwRJC/Nugy8ecbgQcTwBI050lzPiY8YYvquJh2UIvRGSQBksIgaS0tFj2xz5CzH8DEKU7T9hi7AToTm9u5kzdUYQQ1pIGS4gIN3jkuKEmaAoIPXRniRw8lwzzxvxZMzfpTiKEsIY0WEJEqEHDxjZwxDieZ+brIO8FOhwmpvvyczPfwJG1WkKIMCJvqkJEoKTUjLMBngGgq+4skY6Ar8n0TZBBpUKEF2mwhIggKSkpzqpGHR5k8N8Rmgcwh6vdILrOm505R3cQIURw/H979x5cZX2nAfz5ve+55n4Dwi0gd0RuApIEtFlr66UVQT3WC1Bqte1s22nXdrrb7rTL7kwvu7O9um0ttS4CVl0KBLVFnS6lKgmgKKDSoCKBRG5JSEJyknN9f/tHu72iEJL3+zvnvM9npv90nHmemZMcnrznPb+XA4vII+bdeEdFwPY9Cp7Cnqm01rg/OSL8xb1r1iRNlyGiweHAIvKA6puXX64ctRnAONNd6DyUfs5Jp2/b/cSjp0xXIaKLdzEPoCSiLFKzdMXHlaMawHGVHbS6yrJ8e2qWrJxrugoRXTwOLKLcpWqXrlwN4EEAwfP8t5RZqmDp56tvWnGj6SJEdHH4ESFRDrr++s8Gu4JdDwG403QXGpQ0oD/fWL/hv0wXIaKBsU0XIKKhtfD6u4riodg2QH3YdBcaNAtQN1RNnxNoadq/3XQZIrpwHFhEOaRu6aqStK2eVsAi011oSF1ZNW3OiJbbl23Djh08lJQoC/AjQqIcUbtsxXBH41kFzDbdxS2WPww7mA8NBcv2Q9l+OMkYtHYAJ4V0PAqdTpiu6aafjfHHPrlx48a06SJE9N44sIhywLwb76gI+Hw7oDHDdJfBsHwB+ItHI1AyFv6iSvgLKmDnV8CXVwIrWAClzn/R3Ukl4CSiSEXbkY52INnbhmT3O4h3tiLZexpwsn2b6Icb50y6G6tXO6abENG748AiynJ1S1eVxJHeDiDrvtbvyytFqHI6QuWTEBw+Cf7iUVAuvi3pdALxjmbE299CrO0t9J86BJ2KuZbnFg39o131Gz4DPsOQKGNxYBFlsbpIpCCeDD0LoMZ0lwuiFIJlE5BfdTnCIy9DoGSM0TraSSHe9hb6jr+K6LEXkYp2GO0zEAr4j4b69f9ougcRnRsHFlGWqqur88VLxj4F4FrTXc7HXzQShRMXI79qAXz55abrnJvWiHccQe/RPYg2NyId7zXd6LwU8MWG+vXfNt2DiP4WBxZRlqq+acUapXCv6R7vRikb+ePmo3BSHULDp5iuMyDaSSJ67GX0vLEdsfa3TNd5L46Cvq2hfsMm00WI6C9xYBFloZplK/8JWn/TdI9zsfxhFE56H4qmXgNfXqnpOoMW7ziM7t89g75jL0Nn5i1P/ZblXL1z8yO7TBchoj/hwCLKMjVLly8F1GZk2O+v8oVQPPX9KJ5+LaxAvuk6Qy7ZdRxnXq1HX+vLgM64oXXasZx5uzc/0mq6CBH9Xka9QRPRe1u0ZPlUx1J7ABSZ7vJHykLhpCtROnMp7FDm1HJLvPMozux9DLHTb5iu8td2l8RL3rdt2/1x00WIiCe5E2WNukikIKX9vwZg9qt3fyY0fApGXPVZFE68EpbPG8+T9oVLUDhhMQLFoxFvPwwnmTHHPIyJ+fuHtTYdeMp0ESLiwCLKGqOmzFsH4O9M9wAAy5+H8vl3oHzenbDDxabrGBEoHoXCiVdBp+JIdDSbrvMHav7YqbOOtB46sN90EyKv40eERFmgetnKjyqt15ruAQDhyhmoqL4bvrwS01UyRqztTbQ3Pohkb7vpKgDQo2DNbah/+LDpIkRexitYRBlu8S13TtCOegKA0c/glOVH2dzbUDH/LliBsMkqGceXX46CCYuR6juDZJfx+8yDgF44qbJsbXNzMx+nQ2QIBxZRBqurq/MlgyVPAphosocvvxyVV9+H/LGXA4oXvs9F2X7kj50HX14p+k6+Dmij22ZMOlSkWpsO/MZkCSIv48AiymAjZy++D0rdbbJDuPJSVF59H/yFw03WyBrBsnHIG3UZ+o+/avgGeLWoatrlT7Y07TtpsASRZ3FgEWWo6qWrxiul/wdAwFSHwgmLMWzxJ2H5QqYqZCVfuBQF465A7PQhpPu7TdWwNHTNpMqyB/lRIZE8y3QBIjonpeA8CMDMiZ1KoXT2zaio/hiU4t9hF8MOl2DkNV9C3qiZxjooYHaiZOznjBUg8jDeTEGUgWqXrlihgXUmshUUyhbchaLJGXEiRNbTTgptDT9F9NhLpir02Wk1/YUn1x0zVYDIi/inKVGGqYtEClKOfyuAQulsBYXymrtRNPEq6eicpZSF/LHzkOrrQKKzxUQFv6MwsvXQAT4QmkgQPyIkyjCJVPjLgB4lHqwUyhesQOElteLROU9ZqKi+G/njFpqJV7h90U3LrzQSTuRRHFhEGaT25jvHaa3/wUR2+bzbUTj5fSaiPUFBYVjtx5E3eraRfEep72D1ar7nEwnhLxtRBtGO9a8AxE/xLL70BhRNuUY61nOUsjF88acQrDByrNn86n1v3WoimMiLeA8WUYZYeMudk5W2fgLhP3zyq+aj/IoVUPzOiwhl2cgbMwd9ra/ASURFsy2o2RMryx7gsQ1E7uMVLKIMYaV9/wrAJ5kZLB2HYbX3cFwJs4OFGHHlZ6CEzxfTwJREydg7REOJPIoDiygDLLrxozMA/RHJTDtYgOFXfRrK8kvG0h/4S0ZhWPUq8UcPaeBrkUiEn14QuYwDiygDpH36C5D8fVQKw2rvgS+/XCyS/lZ+1QIUTX6/dOyk1lToZulQIq/hwCIybOGSO0YoR4t+bFM89RqER5o7YZz+pHxuBIGSsbKhGl+SDSTyHg4sIsNs5fssFMRuxgkUj0bpnFuk4uh8bB+GLbpX+qPa+bVLPsrTZIlcxIFFZFBNJBLWCp8SC1QWKmo+xvuuMkygeDRKZn5YNFNbjpHz1oi8ggOLyCCVDN0KQOxGqOJpH0Cw7BKpOBqAkunXI1BWJRn54UVLbpd/YgCRR3BgERmkgXulsnx5pSiZeZNUHA2UZaNi/nLJbxX60sq3SiqMyGs4sIgMqbll1TQAi6XyyuZGYPmCUnF0EYIVE0WfV6iUuoePzyFyB3+xiExJpe4GZE74DFZMRH7VFRJRNEhlc0SH8CXV+97ize5ELuDAIjJDQanbpMJKZ98sfqAlXRxfXgkKp8idjaUUbhcLI/IQDiwiA2qXrawGME4iK1x5KcIjpklE0RApnn4tLL/MM7+VVrfU1dWJPqKJyAs4sIgM0FqLXb0qmblEKoqGiB0sQJHQVSwNVCRKxl0tEkbkIRxYRGaIPKokWDERoWGTJaJoiBVNvVrsvDINhyfPEg0xDiwiYbXLVlwGQOTAo5Lp10rEkAvsUDEKJtRIxd0gFUTkFRxYRMK0o6+TyPHllSJvzFyJKHKJ4IOgxyy68aMzpMKIvIADi0iaUtdLxBRMvBJQ/BXPZoHSMQiWy5y8r21HZPgTeQXffYkEzbvxE3mQOFxUWSicyOONcoHU66ihPygSROQRHFhEgvx23xUAAm7nhEdMgy+v1O0YEpA/boHQze6qlsc1EA0dDiwiSUotkojJr5ovEUMCLH8Y4VEit0cVxMrGzJIIIvICDiwiQcpR7n8tTFnIH3u56zEkR+wxR44l8gcAkRdwYBHJUVDa9YEVKp8AK1jodgwJyht1mcwXFrSudT+EyBs4sIiEVC9dNQ5Amds54dEz3Y4gYVYgH8GKCa7nKGCO6yFEHsGBRSRFp0WWT17lZRIxJCxvpMDrqjC5JhKReQgiUY7jwCISYinMdj3DH0KgTOSQeBIWGj5FIsZ2knmXSgQR5ToOLCI5rl+CCJZP4OGiOSpQdgmU5f4pCrZO85uEREOA78REQjTg+lOXgxUT3Y4gQyxfAIHSsa7naKX4dHCiIcCBRSTH9WeeBErHuR1BBsl8/KvGC4QQ5TwOLCIBC6+/qwiA60erB0vHuB1BBgVKJF5fPV4ghCjncWARCfCHlOtXryxfEHZBhdsxZFCgWGBgafevtBJ5AQcWkQDtqNFuZ/jyK6Cg3I4hg3wFw90PURgx7xOfkHj4IVFO48AiEpC21DC3M3y8epXz7LxiwHb9m4TKd7LH9QNxiXIdBxaRBEe7/g+WL58DK9cpKPjzygWCLIEQotzGgUUkwLKU6+vHDvH5g15gCzxn0tY+rnWiQeLAIpKg3f8GoR0ocDuCMoAdEnidbe36zytRruPAIhLgKITczlBBDiwvkHmdNZ9HSDRIHFhEAixHB1zP8LkeQRnAstx/nbXAzytRruPAIhKgLR10O0PiOXVknnL/W4TQAAcW0SBxYBEJUBC47GDZrkeQecp2/4gqJfCRNlGu48AiEqC11m5n8IhRbxD4UYLSluN6CFGO48AikpFwO0A7KbcjKBMIvM5a6bjrIUQ5jgOLSICG+/9gOWkOLC9wnKTrGUrgDwKiXMeBRSRAQbl/BSvFiw6ekHT/dXYE/iAgynUcWEQSNPrdjnDivW5HUAZIJ6Luh2jl+s8rUa7jwCKS0eF2gCPxDy8Zl473uJ5hWard9RCiHMeBRSRAWe4PrHR/t9sRlAGc2FnXM1TaOeN6CFGO48AiEuBAuz6wklHXI8g0J41kX6frMUnb4hUsokHiwCISoBz3P3JJRdvcjiDDUv1dgJN2O8YZ5+vvcjuEKNdxYBEJcOC0uJ2RjLZL/ONLBiV7TrmeoYB3Nm7cyB8kokHiwCIS0N9vHXU9JJ1CQuAfYDIn0en6TodW+ojrIUQewIFFJODAs+ujAFz/DC/Z1ep2BBkk8/qqZoEQopzHgUUkx/UrA4nOY25HkEHxLoHX10Gz+yFEuY8Di0jOIbcDYqffdDuCDHGSfUh2viOQpFz/OSXyAg4sIilKvep2RKyzGeAzCXNSrO0wNLTrOcrSB1wPIfIADiwiIUqr/a6HpFOIdbztegzJi51+QyImER8W5hUsoiHAgUUkJOlXIlcG+k+8JhFDwvqPu34BFBr43d41a5KuBxF5AAcWkZAXN649CeCE2zl9x/kJT65J93ch0e3+NwgV9D7XQ4g8ggOLSJAGGtzOSHS1IsXH5uSUvtb9gBa4/0qpna6HEHkEBxaRJA33/wHTGtFjL7oeQ3J6j+0RydGW/bxIEJEHcGARyXL9ChYARI++JBFDAtKxbqkb3DsaN63lDe5EQ4QDi0hQTyD2CoBet3PiZ44g0X3c7RgS0Nu8G9CORNTzgMA5EEQewYFFJOj1jRsTAH4jkdV7mJ/25AKp11ErPCMSROQRHFhEwpRWT0vk9B5phHb4jftsFmt7U+5KpLZFfi6JvIIDi0hYytHbJHLS8R70vt0oEUUuOdv0rEyQRtOu+rXNMmFE3sCBRSRsz5PrjwD4nURWd9OzIl/vp6GX7DmNaKvMsVRK6V+JBBF5CAcWkRH6FxIpybMnEH3H/Sf00NDrbnpa6uZ2QFkiP49EXsKBRWSC7fu5VFTXgS0iDwmmoZOKnkHvYbEzP481bFm3SyqMyCs4sIgMaNy0tgkKr0tkJbpa0dfyikQUDZGu156AdlIiWQp4DDyegWjIcWARGaI0HpPK6ty/CVqnpeJoEBLdx9FzROQ8WgCAY+nHxcKIPIQDi8iQtOWsBSCyepJnT+Lsoe0SUTRIZ15+HHCExrDCgV2bN7wsE0bkLRxYRIbs3vxIKwCRIxsAoOu1J+HEe6Ti6CJEW/eh/8RrYnnKUT8RCyPyGA4sIoO0o38qleUkoujYK/apJA2Qk4qj8+VHJSP7rVRKNJDISziwiAwKnW39lQJapPJ6m3eh//gBqTgagM79m5DsbRfLU8DjL/zy551igUQew4FFZNCOHTtSWusfSGa271kHJxGVjKTz6D/VhB7Ze+R02lHflQwk8hoOLCLDnIReA6huqbxUXyfad6+ViqPzcBJ9aN/1M9mzyjSe2f3EOl7KJHIRBxaRYbu3PXJWwfmZZGa05WX0HH5eMpLORWu07V6LVPSMbCzUt0UDiTyIA4soAyS1/3sA4pKZHS8+gnjnUclI+ivdTc+ir2WvdOxLu7au+7V0KJHXcGARZYAXt/53C6DEvlEIANpJ4vRzP0SaRzcYETvVhDP7N4nnaqiviYcSeRAHFlGG8FnONwD0SWamoh04/dwPoZ2kZKznpXrbcOqFB+QOFP2Txl3168TOXiPyMg4sogzx/OYNJzTwY+ncWNubaGt8CNB8HJ2EdOwsTmz/tpFDX7Xm1SsiKRxYRBnEl0x/HUCHdG706B507OWZk25zkv04+dvvI9XbZiL+17z3ikiObboAEf3JsTdfjVVNnx0DcL10drzjCOA4CFdOl472BJ1O4NSO7yPefthEfMpKW0tb3thvZNkReRGvYBFlmPiw8I8B/M5EdtfrT6HzQL2J6JymUzGc3PF9xE6/YSZf40c7n3z4dSPhRB7FK1hEGebE3r3O2Kmz34LCchP5sdNvQCdjCFfOAJQyUSGnOIkoTm7/HuJtb5qq0KYCgUjrwVf6TRUg8iIOLKIM1HrowOGqqbMnQ2GWifx4+2Gk+zoQHj0LSvFC98VK9XXi5PZvI2HwvDGt9Cd3bXp4j7ECRB7Fd06iDJWy1OcAnDaV3/P2Tpzc/l04CdGTI3JGoqsVJ579OhJdreZKaDy9a8uGR8wVIPIuXsEiylDvNO3vr5o25ySAm011SEXb0df6CsKVM2AHC0zVyDrRYy/h1G/vhxPvNVpDK/tDrU37ukyWIPIqDiyiDNbStP/A2Gmz5wKYZqqDE+9F75EGBIoq4S8eZapGdnDSOLNvE8688jjgpIyVZixrAAAHGUlEQVRW0dCf31XPYxmITOHAIspwIybP+LVtWSsAFJrqoJ0UosdeRKq3DeGRM6Asn6kqGSsV7cCp5+5H9Ggm3O6kt+2q33Cf6RZEXsaBRZThTrzxWl/VtLmvAno5AKNf60t0taKv5WWEyifAzisxWSWj9Ly9E6efux/JnlOmqwDACZ/ff+2xg/uiposQeRkHFlEWaGnaf3js9DkFAGpNd3Hiveg5shM62Y/gsMlQlnffRpK97Wh74QGcbXoW2vBHgn+Q1lrd0rD54ddMFyHyOu++MxJlmUmVpb9Jh4qvAjDedBdojXj7YfQd3Q07rxyB4pGmG4nS6QS6D/4K7Q1rkDx70nSdP9Jaf3XX1vUPm+5BRIY/biCigVm45I4RluV7CcAY013+XGjENJTP/QgCZVWmq7hLa/Qeewmd+zYiFRV/ZOT5bG2sX78MAJ/aTZQBOLCIssyim++qdtLWb6AQMt3lLyiF/DFzUTJrKQLFo023GVpao++dfeh8tR6JToPnWr27Qwl/bOHejRu7TRchot/jwCLKQrXLVtyuNX6ODPwdVlAIj5mN4unXITRssuk6g6J1GtHmPehuejpThxUAtClYNQ31Dxt5ijQRnVvGvTkT0YWpWbriywC+YbrHewmWX4LCyXXIr1oAyxc0XeeCpfo60XP4OfQefh6pvk7Tdd5Lv1Lq/Q1b1jWaLkJEf4kDiyiLVd+0Yo1SuNd0j/Ox/GHkV81H/rgFCI+YDmTg8w2dZD/6Wl5B79E9iJ14DTrzb2VylFYfadi67hemixDR3+LAIspikUjEbk0FH4NWt5rucqHsUBHyxsxB3sjLEKqcDsufZ6xLKtqB/uOvof/EAfQdfx3aSRrrMkBaAZ9qqF+/xnQRIjo3DiyiLDcjEgkUJcKbofSHTHcZMMtGsHQ8QsMmIjR8CgJl4+HLK3UnSztI9pxCrP1txE+/gVj7Wxl1xMJAaKW+sGvLuu+Y7kFE744DiygH1EQiYSRDTwG42nSXwbIC+QiWjoWvaAT8+RWw84fBl1cCO1gAK5D/+4dOn+MjRu0kkY5F4cR74SR6kIyeQTragWTvaSS7jyPRdTybrlC9O4V/adyy/t9M1yCi98aBRZQjaiKRMBKhzVC4znQXEbYPlh2ETvRlw/1SQ+UrjfXrv2m6BBGdH09yJ8oRrQcPpopnTd0Y1PZ0QF1quo/rtAOdzoErUhdGA7ivsX79f5ouQkQXhgOLKIe0HTyYnlRZtiUdLh4PYLbpPjQkUhq4Z1f9+gdMFyGiC8eBRZRjmpubndamA1urps0BgPeBtwJks15l6Vsbt2zYaLoIEQ0MBxZRjmpp2r9jzLTZRxVwA/i7noXUcTjqA431658z3YSIBo5/2RLluNplK66GxuMaqDDdhS7YHqTUzY1PrXvHdBEiujiZd5wyEQ2phi3rt6ctZy6A3aa70AVZD3+sjuOKKLvxChaRR9StWhVKdDv3a63vMd2FzkEjBkt9unHLuodMVyGiwePAIvKY2ptW3qqV/gmAMtNd6I8OKth3NdSv3We6CBENDX5ESOQxDVvX/cJOq7kAfmu6C0EDWJNIhxdwXBHlFl7BIvKoSCRityRDX1DAagBh03086Cg0Ptm4df0zposQ0dDjwCLyuMW33DnBSdsPaOADprt4hAPgQcvxf3HnEw/1mC5DRO7gwCIiAFC1Ny1fpZX6FoDhpsvkKgXs1VB/31i/bo/pLkTkLh4+SEQAgJZDB/ZNmjn1AcfxJwHUAPCZ7pQrFNAO6K+M8cc/8czmR1tN9yEi9/EKFhH9jSuWrZxiw/kWtFoKvk8MRh80fmBp/zf4cSCRt/CNk4jeVc1Nd82Esr4K4Fbw/WIgEgDW+iy9+vnNG06YLkNE8viGSUTnVbtsZY128M9Q+gbwfeO9RBXwkE6pf+dJ7ETexjdKIrpgNUuWT9JKfVYp3Ase7fDnTiuoH6cU7t+zZV2H6TJEZB4HFhEN2ILIqko7kbpbKfVxABNM9zFFAS84Sj1YGit+bNu2++Om+xBR5uDAIqKLt3q1Vf3K21dbSt+jgSXwwlUtjZNa4RFl2w82blrbZLoOEWUmDiwiGhI1kUhYJ0LXKIUIgFsA5JnuNITOAPil1tgY6m7ZtmPHjpTpQkSU2TiwiGjILbz+riI7YH9QK30dFK6DxmjTnQZIA3o/tHoaFp4Odrbs5KgiooHgwCIi1y1csnKWbes6rdUiKL0oAweXA+AgNF5QSu20Led/ebwCEQ0GBxYRiateumq8UukFWmOWAmYCmAVgPGTekxJQaNJaHwDUq0pjv51K73nhlz/vFMgmIo/gwCKijFATiYSdROASH6zxjoVL4OhxSqlhGijH//9PoQD6j/d2FQOw8PtDPaN/+P/OQqEX0B0AOrSj2hVwQkE3K201py3rSKiruZUf9xGR2/4POYfirlu7OFMAAAAASUVORK5CYII=;" vertex="1" parent="QpJPM_pMCbOV_byNEW9--121">
          <mxGeometry x="15.66" y="32.91" width="29.58" height="29.09" as="geometry" />
        </mxCell>
        <mxCell id="QpJPM_pMCbOV_byNEW9--125" value="Graph DB" style="text;html=1;align=center;verticalAlign=middle;resizable=0;points=[];autosize=1;strokeColor=none;fillColor=none;" vertex="1" parent="QpJPM_pMCbOV_byNEW9--130">
          <mxGeometry x="3.570930232558112" y="69.00463452566089" width="80" height="30" as="geometry" />
        </mxCell>
        <mxCell id="QpJPM_pMCbOV_byNEW9--142" value="" style="group" vertex="1" connectable="0" parent="QpJPM_pMCbOV_byNEW9--173">
          <mxGeometry x="160" y="570" width="87.38000000000011" height="97.32999999999993" as="geometry" />
        </mxCell>
        <mxCell id="QpJPM_pMCbOV_byNEW9--143" value="" style="outlineConnect=0;dashed=0;verticalLabelPosition=bottom;verticalAlign=top;align=center;html=1;shape=mxgraph.aws3.cache_node;fillColor=#2E73B8;gradientColor=none;" vertex="1" parent="QpJPM_pMCbOV_byNEW9--142">
          <mxGeometry x="10.386976744186086" y="7.064152410575389" width="35.45116279069769" height="37.32503888024883" as="geometry" />
        </mxCell>
        <mxCell id="QpJPM_pMCbOV_byNEW9--144" value="" style="outlineConnect=0;dashed=0;verticalLabelPosition=bottom;verticalAlign=top;align=center;html=1;shape=mxgraph.aws3.cache_node;fillColor=#2E73B8;gradientColor=none;" vertex="1" parent="QpJPM_pMCbOV_byNEW9--142">
          <mxGeometry x="25.959534883720835" y="14.596671850699863" width="35.45116279069769" height="37.32503888024883" as="geometry" />
        </mxCell>
        <mxCell id="QpJPM_pMCbOV_byNEW9--145" value="" style="outlineConnect=0;dashed=0;verticalLabelPosition=bottom;verticalAlign=top;align=center;html=1;shape=mxgraph.aws3.cache_node;fillColor=#2E73B8;gradientColor=none;" vertex="1" parent="QpJPM_pMCbOV_byNEW9--142">
          <mxGeometry x="41.46976744186054" y="23.32919129082427" width="35.45116279069769" height="37.32503888024883" as="geometry" />
        </mxCell>
        <mxCell id="QpJPM_pMCbOV_byNEW9--146" value="" style="rounded=1;whiteSpace=wrap;html=1;fillColor=none;strokeColor=#00BEF2;dashed=1;strokeWidth=2;" vertex="1" parent="QpJPM_pMCbOV_byNEW9--142">
          <mxGeometry width="87.38" height="93.33" as="geometry" />
        </mxCell>
        <mxCell id="QpJPM_pMCbOV_byNEW9--147" value="News feed&amp;nbsp;&lt;div&gt;cache&lt;/div&gt;" style="text;html=1;align=center;verticalAlign=middle;resizable=0;points=[];autosize=1;strokeColor=none;fillColor=none;" vertex="1" parent="QpJPM_pMCbOV_byNEW9--142">
          <mxGeometry x="3.6900000000000546" y="57.32999999999993" width="80" height="40" as="geometry" />
        </mxCell>
        <mxCell id="QpJPM_pMCbOV_byNEW9--149" value="" style="outlineConnect=0;dashed=0;verticalLabelPosition=bottom;verticalAlign=top;align=center;html=1;shape=mxgraph.aws3.cache_node;fillColor=#2E73B8;gradientColor=none;" vertex="1" parent="QpJPM_pMCbOV_byNEW9--173">
          <mxGeometry x="20.386976744186086" y="292.0641524105754" width="35.45116279069769" height="37.32503888024883" as="geometry" />
        </mxCell>
        <mxCell id="QpJPM_pMCbOV_byNEW9--150" value="" style="outlineConnect=0;dashed=0;verticalLabelPosition=bottom;verticalAlign=top;align=center;html=1;shape=mxgraph.aws3.cache_node;fillColor=#2E73B8;gradientColor=none;" vertex="1" parent="QpJPM_pMCbOV_byNEW9--173">
          <mxGeometry x="35.959534883720835" y="299.59667185069986" width="35.45116279069769" height="37.32503888024883" as="geometry" />
        </mxCell>
        <mxCell id="QpJPM_pMCbOV_byNEW9--151" value="" style="outlineConnect=0;dashed=0;verticalLabelPosition=bottom;verticalAlign=top;align=center;html=1;shape=mxgraph.aws3.cache_node;fillColor=#2E73B8;gradientColor=none;" vertex="1" parent="QpJPM_pMCbOV_byNEW9--173">
          <mxGeometry x="51.46976744186054" y="308.32919129082427" width="35.45116279069769" height="37.32503888024883" as="geometry" />
        </mxCell>
        <mxCell id="QpJPM_pMCbOV_byNEW9--152" value="" style="rounded=1;whiteSpace=wrap;html=1;fillColor=none;strokeColor=#00BEF2;dashed=1;strokeWidth=2;" vertex="1" parent="QpJPM_pMCbOV_byNEW9--173">
          <mxGeometry x="10" y="286.89" width="87.38" height="85" as="geometry" />
        </mxCell>
        <mxCell id="QpJPM_pMCbOV_byNEW9--153" value="Post cache" style="text;html=1;align=center;verticalAlign=middle;resizable=0;points=[];autosize=1;strokeColor=none;fillColor=none;" vertex="1" parent="QpJPM_pMCbOV_byNEW9--173">
          <mxGeometry x="13.690000000000055" y="341.3299999999999" width="80" height="30" as="geometry" />
        </mxCell>
        <mxCell id="QpJPM_pMCbOV_byNEW9--154" value="" style="group" vertex="1" connectable="0" parent="QpJPM_pMCbOV_byNEW9--173">
          <mxGeometry x="331.8600000000001" y="415.34" width="87.38000000000011" height="84.32999999999993" as="geometry" />
        </mxCell>
        <mxCell id="QpJPM_pMCbOV_byNEW9--134" value="" style="outlineConnect=0;dashed=0;verticalLabelPosition=bottom;verticalAlign=top;align=center;html=1;shape=mxgraph.aws3.cache_node;fillColor=#2E73B8;gradientColor=none;" vertex="1" parent="QpJPM_pMCbOV_byNEW9--154">
          <mxGeometry x="10.386976744186086" y="7.064152410575389" width="35.45116279069769" height="37.32503888024883" as="geometry" />
        </mxCell>
        <mxCell id="QpJPM_pMCbOV_byNEW9--135" value="" style="outlineConnect=0;dashed=0;verticalLabelPosition=bottom;verticalAlign=top;align=center;html=1;shape=mxgraph.aws3.cache_node;fillColor=#2E73B8;gradientColor=none;" vertex="1" parent="QpJPM_pMCbOV_byNEW9--154">
          <mxGeometry x="25.959534883720835" y="14.596671850699863" width="35.45116279069769" height="37.32503888024883" as="geometry" />
        </mxCell>
        <mxCell id="QpJPM_pMCbOV_byNEW9--136" value="" style="outlineConnect=0;dashed=0;verticalLabelPosition=bottom;verticalAlign=top;align=center;html=1;shape=mxgraph.aws3.cache_node;fillColor=#2E73B8;gradientColor=none;" vertex="1" parent="QpJPM_pMCbOV_byNEW9--154">
          <mxGeometry x="41.46976744186054" y="23.32919129082427" width="35.45116279069769" height="37.32503888024883" as="geometry" />
        </mxCell>
        <mxCell id="QpJPM_pMCbOV_byNEW9--139" value="" style="rounded=1;whiteSpace=wrap;html=1;fillColor=none;strokeColor=#00BEF2;dashed=1;strokeWidth=2;" vertex="1" parent="QpJPM_pMCbOV_byNEW9--154">
          <mxGeometry width="87.38" height="83.33" as="geometry" />
        </mxCell>
        <mxCell id="QpJPM_pMCbOV_byNEW9--140" value="User cache" style="text;html=1;align=center;verticalAlign=middle;resizable=0;points=[];autosize=1;strokeColor=none;fillColor=none;" vertex="1" parent="QpJPM_pMCbOV_byNEW9--154">
          <mxGeometry x="3.6900000000000546" y="54.32999999999993" width="80" height="30" as="geometry" />
        </mxCell>
        <mxCell id="QpJPM_pMCbOV_byNEW9--155" value="" style="group" vertex="1" connectable="0" parent="QpJPM_pMCbOV_byNEW9--173">
          <mxGeometry x="460.0034883720932" y="412.8892846034214" width="93.02325581395351" height="86.78071539657853" as="geometry" />
        </mxCell>
        <mxCell id="QpJPM_pMCbOV_byNEW9--156" value="" style="rounded=1;whiteSpace=wrap;html=1;fillColor=none;strokeColor=#00BEF2;dashed=1;strokeWidth=2;" vertex="1" parent="QpJPM_pMCbOV_byNEW9--155">
          <mxGeometry x="2.8279069767442055" width="87.37674418604655" height="83.98133748055987" as="geometry" />
        </mxCell>
        <mxCell id="QpJPM_pMCbOV_byNEW9--157" value="Post database" style="text;html=1;align=center;verticalAlign=middle;resizable=0;points=[];autosize=1;strokeColor=none;fillColor=none;" vertex="1" parent="QpJPM_pMCbOV_byNEW9--155">
          <mxGeometry x="-3" y="56.7869362363919" width="100" height="30" as="geometry" />
        </mxCell>
        <mxCell id="QpJPM_pMCbOV_byNEW9--158" value="" style="sketch=0;shadow=0;dashed=0;html=1;strokeColor=none;fillColor=#2E73B8;labelPosition=center;verticalLabelPosition=bottom;verticalAlign=top;outlineConnect=0;align=center;shape=mxgraph.office.databases.database_availability_group;" vertex="1" parent="QpJPM_pMCbOV_byNEW9--155">
          <mxGeometry x="16.251162790697705" y="9.331259720062208" width="54.88372093023258" height="55.05443234836702" as="geometry" />
        </mxCell>
        <mxCell id="QpJPM_pMCbOV_byNEW9--159" value="" style="endArrow=classic;html=1;rounded=0;" edge="1" parent="QpJPM_pMCbOV_byNEW9--173">
          <mxGeometry width="50" height="50" relative="1" as="geometry">
            <mxPoint x="256.86" y="329.39" as="sourcePoint" />
            <mxPoint x="330" y="450" as="targetPoint" />
          </mxGeometry>
        </mxCell>
        <mxCell id="QpJPM_pMCbOV_byNEW9--160" value="" style="endArrow=classic;html=1;rounded=0;" edge="1" parent="QpJPM_pMCbOV_byNEW9--173">
          <mxGeometry width="50" height="50" relative="1" as="geometry">
            <mxPoint x="419.24" y="450" as="sourcePoint" />
            <mxPoint x="460" y="450" as="targetPoint" />
          </mxGeometry>
        </mxCell>
        <mxCell id="QpJPM_pMCbOV_byNEW9--162" value="Get friend ids" style="text;html=1;align=center;verticalAlign=middle;resizable=0;points=[];autosize=1;strokeColor=none;fillColor=none;" vertex="1" parent="QpJPM_pMCbOV_byNEW9--173">
          <mxGeometry x="255.72000000000003" y="303.26" width="90" height="30" as="geometry" />
        </mxCell>
        <mxCell id="QpJPM_pMCbOV_byNEW9--166" value="" style="endArrow=classic;html=1;rounded=0;" edge="1" parent="QpJPM_pMCbOV_byNEW9--173">
          <mxGeometry width="50" height="50" relative="1" as="geometry">
            <mxPoint x="256.74" y="329" as="sourcePoint" />
            <mxPoint x="353.72" y="328.89" as="targetPoint" />
          </mxGeometry>
        </mxCell>
        <mxCell id="QpJPM_pMCbOV_byNEW9--167" value="Get friend data" style="text;html=1;align=center;verticalAlign=middle;resizable=0;points=[];autosize=1;strokeColor=none;fillColor=none;rotation=60;" vertex="1" parent="QpJPM_pMCbOV_byNEW9--173">
          <mxGeometry x="239.86000000000013" y="382.63" width="100" height="30" as="geometry" />
        </mxCell>
        <mxCell id="QpJPM_pMCbOV_byNEW9--175" value="v1/me/feed?&lt;div&gt;content=Hello&amp;amp;&lt;/div&gt;&lt;div style=&quot;&quot;&gt;auth_token={auth_token}&lt;/div&gt;" style="text;html=1;align=left;verticalAlign=middle;resizable=0;points=[];autosize=1;strokeColor=none;fillColor=none;" vertex="1" parent="QpJPM_pMCbOV_byNEW9--173">
          <mxGeometry x="209.86000000000013" y="66.4" width="160" height="60" as="geometry" />
        </mxCell>
        <mxCell id="QpJPM_pMCbOV_byNEW9--174" value="&lt;b style=&quot;text-align: left;&quot;&gt;Functional requirements&lt;/b&gt;&lt;div style=&quot;text-align: left;&quot;&gt;1. Supports both mobile and web&amp;nbsp;&lt;/div&gt;&lt;div style=&quot;text-align: left;&quot;&gt;2. Users can publish a post and see their friends posts on news feed&lt;/div&gt;&lt;div style=&quot;text-align: left;&quot;&gt;3. Users can have up to 5000 friends&amp;nbsp;&lt;/div&gt;&lt;div style=&quot;text-align: left;&quot;&gt;4. We should allow media (images, videos) on the news feed&lt;/div&gt;&lt;div style=&quot;text-align: left;&quot;&gt;&lt;br&gt;&lt;/div&gt;&lt;div style=&quot;text-align: left;&quot;&gt;&lt;b&gt;Non functional requirements&lt;/b&gt;&lt;/div&gt;&lt;div style=&quot;text-align: left;&quot;&gt;1. Scalable&amp;nbsp;&lt;/div&gt;&lt;div style=&quot;text-align: left;&quot;&gt;2. Highly available&amp;nbsp;&lt;/div&gt;&lt;div style=&quot;text-align: left;&quot;&gt;&lt;br&gt;&lt;/div&gt;&lt;div style=&quot;text-align: left;&quot;&gt;&lt;b&gt;News Feed APIs&lt;/b&gt;&lt;div&gt;Feed publishing POST/v1/me/feed&lt;/div&gt;&lt;div&gt;Feed retrieval GET/v1/me/feed&lt;/div&gt;&lt;div&gt;&lt;br&gt;&lt;/div&gt;&lt;div&gt;&lt;b&gt;For posting a request&lt;/b&gt;&lt;/div&gt;&lt;div&gt;1. User makes a POST request.&lt;/div&gt;&lt;div&gt;2. We first hit the load balancer who will transfer the traffic uniformly&amp;nbsp;&lt;/div&gt;&lt;div&gt;&amp;nbsp; &amp;nbsp; to the servers.&amp;nbsp;&lt;/div&gt;&lt;div&gt;3. Server directs us to the post service.&amp;nbsp;&lt;/div&gt;&lt;div&gt;4. We save the post to the database.&lt;/div&gt;&lt;div&gt;&lt;br&gt;&lt;/div&gt;&lt;div&gt;&lt;b&gt;For reading the news feed&amp;nbsp;&lt;/b&gt;&lt;/div&gt;&lt;div&gt;1. User makes a GET request.&lt;/div&gt;&lt;div&gt;2. Load balancer directs the traffic to one of the servers.&amp;nbsp;&lt;/div&gt;&lt;div&gt;3. The server directs us to the Fanout service.&amp;nbsp;&lt;/div&gt;&lt;div&gt;4. Fanout service add the request to message queue.&amp;nbsp;&lt;/div&gt;&lt;div&gt;5. The fanout workers get one of the messages from the queue for&amp;nbsp;&lt;/div&gt;&lt;div&gt;&amp;nbsp; &amp;nbsp; processing and add it to the news feed cache.&amp;nbsp;&lt;/div&gt;&lt;div&gt;6. The cache contains &amp;lt;post_id, user_id&amp;gt; map only. This allows us&amp;nbsp;&lt;/div&gt;&lt;div&gt;&amp;nbsp; &amp;nbsp; a small memory footprint.&amp;nbsp;&lt;/div&gt;&lt;div&gt;7. The fanout service then gets the user&#39;s friends from the Graph DB.&lt;/div&gt;&lt;div&gt;8. Then we check the user cache, if the user is in the cache we&amp;nbsp;&lt;/div&gt;&lt;div&gt;&amp;nbsp; &amp;nbsp; &amp;nbsp;save that and if not we query from the user database.&amp;nbsp;&lt;/div&gt;&lt;div&gt;9. The fanout service than makes another request to the post cache&lt;/div&gt;&lt;div&gt;&amp;nbsp; &amp;nbsp; if the post is there it saves it, and if not it queries it from post DB.&lt;/div&gt;&lt;div&gt;10. Since we have all the posts based on the friends of the user, the&lt;/div&gt;&lt;div&gt;&amp;nbsp; &amp;nbsp; &amp;nbsp; &amp;nbsp;fanout service then sorts them and sends them back to the client.&lt;/div&gt;&lt;div&gt;&lt;br&gt;&lt;/div&gt;&lt;div&gt;&lt;br&gt;&lt;/div&gt;&lt;/div&gt;" style="text;html=1;align=center;verticalAlign=middle;resizable=0;points=[];autosize=1;strokeColor=none;fillColor=none;" vertex="1" parent="1">
          <mxGeometry x="420" y="80" width="390" height="570" as="geometry" />
        </mxCell>
      </root>
    </mxGraphModel>
  </diagram>
</mxfile>
